<svg width="148" height="45" viewBox="0 0 148 45" fill="none" xmlns="http://www.w3.org/2000/svg">
<rect y="0.640625" width="147.595" height="44.3593" rx="4" fill="#363636"/>
<path fill-rule="evenodd" clip-rule="evenodd" d="M51.4668 11.7291C51.4668 12.6518 51.1954 13.3862 50.6514 13.9345C50.0331 14.5853 49.2287 14.9112 48.2394 14.9112C47.2916 14.9112 46.4851 14.5809 45.8229 13.9202C45.1586 13.2585 44.8281 12.4393 44.8281 11.4604C44.8281 10.4827 45.1586 9.66346 45.8229 9.00171C46.4851 8.33997 47.2916 8.00964 48.2394 8.00964C48.7089 8.00964 49.1598 8.10213 49.5866 8.28711C50.0145 8.4721 50.3571 8.71764 50.6142 9.02484L50.0364 9.60621C49.6019 9.08319 49.0033 8.82224 48.2394 8.82224C47.5477 8.82224 46.9502 9.06668 46.4457 9.55556C45.9411 10.0444 45.6894 10.6798 45.6894 11.4604C45.6894 12.2422 45.9411 12.8775 46.4457 13.3664C46.9502 13.8553 47.5477 14.0997 48.2394 14.0997C48.9726 14.0997 49.5833 13.8542 50.0736 13.362C50.391 13.0416 50.5748 12.5956 50.623 12.0242H48.2394V11.2303H51.4208C51.4515 11.4032 51.4668 11.5683 51.4668 11.7291Z" fill="white"/>
<path fill-rule="evenodd" clip-rule="evenodd" d="M51.4659 11.7291H51.3564C51.3553 12.6309 51.0938 13.3301 50.5728 13.8564L50.5717 13.8575V13.8586C49.9731 14.4873 49.2048 14.8 48.2385 14.8011C47.3159 14.8 46.5432 14.484 45.8986 13.8421C45.2551 13.1991 44.9378 12.414 44.9367 11.4605C44.9378 10.5069 45.2551 9.72295 45.8986 9.07992C46.5432 8.438 47.3159 8.12089 48.2385 8.11978C48.6937 8.11978 49.1282 8.20897 49.543 8.38845C49.9578 8.56792 50.285 8.80355 50.5291 9.09534L50.6133 9.02487L50.5356 8.94669L49.9589 9.52806L50.0355 9.60624L50.1198 9.53577C49.6645 8.98633 49.0264 8.70996 48.2385 8.71216C47.5205 8.71106 46.8902 8.96871 46.3692 9.47631C45.8417 9.98611 45.578 10.6567 45.5791 11.4605C45.578 12.2653 45.8417 12.9359 46.3692 13.4457C46.8902 13.9533 47.5205 14.2109 48.2385 14.2098C48.9958 14.2109 49.6415 13.9522 50.1493 13.4402C50.4886 13.0978 50.6812 12.6232 50.7315 12.033L50.7425 11.9141H48.3479V11.3404H51.4199V11.2303L51.3127 11.2501C51.3422 11.4164 51.3564 11.575 51.3564 11.7291H51.5753C51.5753 11.5618 51.56 11.3889 51.5272 11.2105L51.5118 11.1202H48.129V12.0242V12.1343H50.6221V12.0242L50.5137 12.0143C50.4656 12.5681 50.2905 12.9854 49.995 13.2838C49.5244 13.7551 48.9476 13.9885 48.2385 13.9896C47.572 13.9885 47.0084 13.7584 46.5214 13.2871C46.0387 12.8181 45.799 12.2191 45.798 11.4605C45.799 10.7029 46.0387 10.1039 46.5214 9.63487C47.0084 9.16361 47.572 8.93348 48.2385 8.93238C48.9783 8.93348 49.5364 9.18012 49.9523 9.67671L50.0289 9.7692L50.6899 9.10305L50.7611 9.03148L50.6965 8.9544C50.4273 8.63179 50.0694 8.37634 49.6295 8.18585C49.1884 7.99536 48.7222 7.89957 48.2385 7.89957C47.2645 7.89847 46.425 8.2431 45.7443 8.92357C45.0614 9.60293 44.7167 10.4574 44.7178 11.4605C44.7167 12.4635 45.0614 13.318 45.7443 13.9984C46.425 14.6789 47.2655 15.0224 48.2385 15.0213C49.2508 15.0224 50.0924 14.6844 50.7293 14.0105L50.6505 13.9346L50.7282 14.0116C51.2951 13.4424 51.5764 12.6716 51.5753 11.7291H51.4659Z" fill="white"/>
<path fill-rule="evenodd" clip-rule="evenodd" d="M56.5105 8.96991H53.5205V11.0642H56.2172V11.858H53.5205V13.9523H56.5105V14.7638H52.6768V8.15732H56.5105V8.96991Z" fill="white"/>
<path fill-rule="evenodd" clip-rule="evenodd" d="M56.5105 8.96996V8.85985H53.4112V11.1743H56.1078V11.748H53.4112V14.0624H56.4011V14.6537H52.7863V8.26747H56.4011V8.96996H56.5105V8.85985V8.96996H56.62V8.04726H52.5674V14.8739H56.62V13.8422H53.6301V11.9682H56.3267V10.9541H53.6301V9.08007H56.62V8.96996H56.5105Z" fill="white"/>
<path fill-rule="evenodd" clip-rule="evenodd" d="M60.0686 14.7638H59.2249V8.96991H57.3906V8.15732H61.9029V8.96991H60.0686V14.7638Z" fill="white"/>
<path fill-rule="evenodd" clip-rule="evenodd" d="M60.0687 14.7638V14.6537H59.3344V8.85985H57.5001V8.26747H61.7935V8.85985H59.9593V14.7638H60.0687V14.6537V14.7638H60.1781V9.08007H62.0124V8.04726H57.2812V8.96996V9.08007H59.1155V14.8739H60.1781V14.7638H60.0687Z" fill="white"/>
<path fill-rule="evenodd" clip-rule="evenodd" d="M65.168 14.7638H66.0107V8.15732H65.168V14.7638Z" fill="white"/>
<path fill-rule="evenodd" clip-rule="evenodd" d="M65.168 14.7638H65.2775V8.26747H65.9013V14.6537H65.168V14.7638H65.2775H65.168V14.8739H66.1202V8.04726H65.168H65.0586V14.8739H65.168V14.7638Z" fill="white"/>
<path fill-rule="evenodd" clip-rule="evenodd" d="M69.7542 14.7638H68.9093V8.96991H67.0762V8.15732H71.5884V8.96991H69.7542V14.7638Z" fill="white"/>
<path fill-rule="evenodd" clip-rule="evenodd" d="M69.7542 14.7638V14.6537H69.0188V8.85985H67.1857V8.26747H71.479V8.85985H69.6448V14.7638H69.7542V14.6537V14.7638H69.8637V9.08007H71.6979V8.04726H66.9668V8.96996V9.08007H68.7999V14.8739H69.8637V14.7638H69.7542Z" fill="white"/>
<path fill-rule="evenodd" clip-rule="evenodd" d="M75.9388 13.3576C76.4247 13.852 77.019 14.0997 77.7227 14.0997C78.4253 14.0997 79.0206 13.852 79.5066 13.3576C79.9925 12.8621 80.2365 12.2301 80.2365 11.4604C80.2365 10.6919 79.9925 10.0598 79.5066 9.56436C79.0206 9.06998 78.4253 8.82224 77.7227 8.82224C77.019 8.82224 76.4247 9.06998 75.9388 9.56436C75.4529 10.0598 75.2099 10.6919 75.2099 11.4604C75.2099 12.2301 75.4529 12.8621 75.9388 13.3576ZM80.1304 13.9103C79.4847 14.5787 78.6825 14.9112 77.7227 14.9112C76.7629 14.9112 75.9596 14.5787 75.3161 13.9103C74.6704 13.2431 74.3486 12.4261 74.3486 11.4604C74.3486 10.4948 74.6704 9.67888 75.3161 9.01162C75.9596 8.34327 76.7629 8.00964 77.7227 8.00964C78.677 8.00964 79.477 8.34547 80.126 9.01603C80.7739 9.68658 81.0978 10.5014 81.0978 11.4604C81.0978 12.4261 80.775 13.2431 80.1304 13.9103Z" fill="white"/>
<path fill-rule="evenodd" clip-rule="evenodd" d="M75.9379 13.3576L75.8602 13.4347C76.3636 13.95 76.9929 14.2109 77.7218 14.2098C78.4506 14.2109 79.0799 13.95 79.5834 13.4347C80.0901 12.9194 80.3461 12.2532 80.3451 11.4605C80.3461 10.6688 80.0901 10.0026 79.5834 9.48732C79.0799 8.97202 78.4506 8.71106 77.7218 8.71216C76.9929 8.71106 76.3636 8.97202 75.8602 9.48732C75.3535 10.0026 75.0985 10.6688 75.0996 11.4605C75.0985 12.2532 75.3535 12.9194 75.8602 13.4347L75.9379 13.3576L76.0156 13.2794C75.5516 12.8049 75.3195 12.207 75.3185 11.4605C75.3195 10.715 75.5516 10.1171 76.0156 9.64147V9.64257C76.484 9.16691 77.0432 8.93348 77.7218 8.93238C78.3992 8.93348 78.9595 9.16691 79.4268 9.64147V9.64257C79.8931 10.1171 80.1251 10.715 80.1262 11.4605C80.1251 12.207 79.8931 12.8049 79.4268 13.2794C78.9595 13.7551 78.3992 13.9885 77.7218 13.9896C77.0432 13.9885 76.484 13.7551 76.0156 13.2794L75.9379 13.3576ZM80.1295 13.9103L80.0507 13.8333C79.4236 14.4807 78.6564 14.8 77.7218 14.8011C76.7871 14.8 76.0189 14.4807 75.3929 13.8333L75.3896 13.8311L75.3929 13.8333C74.7669 13.1847 74.4583 12.4019 74.4572 11.4605C74.4583 10.5201 74.7669 9.73727 75.3929 9.08873C76.0189 8.4413 76.7871 8.12089 77.7218 8.11978C78.6509 8.12089 79.4159 8.4424 80.0463 9.09314C80.6756 9.74497 80.9864 10.5256 80.9875 11.4605C80.9864 12.4019 80.6756 13.1847 80.0507 13.8333L80.1295 13.9103L80.2083 13.9874C80.8715 13.3015 81.2074 12.4514 81.2064 11.4605C81.2074 10.4761 80.8704 9.62826 80.2039 8.93899C79.5363 8.24861 78.7013 7.89847 77.7218 7.89957C76.7368 7.89847 75.8985 8.24641 75.2364 8.93458C74.571 9.62055 74.2372 10.4706 74.2383 11.4605C74.2372 12.4514 74.571 13.3015 75.2364 13.9874L75.2397 13.9907L75.2364 13.9874C75.8985 14.6756 76.7368 15.0224 77.7218 15.0213C78.7067 15.0224 79.544 14.6756 80.2083 13.9874L80.1295 13.9103Z" fill="white"/>
<path fill-rule="evenodd" clip-rule="evenodd" d="M82.2812 14.7638V8.15732H83.3078L86.4991 13.2971H86.5352L86.4991 12.0243V8.15732H87.344V14.7638H86.463L83.1239 9.37621H83.0878L83.1239 10.6491V14.7638H82.2812Z" fill="white"/>
<path fill-rule="evenodd" clip-rule="evenodd" d="M82.2813 14.7638H82.3908V8.26747H83.2477L86.439 13.4073H86.648L86.6086 12.0221V8.26747H87.2346V14.6537H86.5243L83.1853 9.26615H83.0879H82.9752L83.0146 10.6513V14.6537H82.2813V14.7638H82.3908H82.2813V14.8739H83.2334V10.648L83.1973 9.37295L83.0879 9.37626V9.48636H83.124V9.37626L83.031 9.43461L86.4028 14.8739H87.4535V8.04726H86.4991H86.3897V12.0254L86.4258 13.3005L86.5353 13.2972V13.1871H86.4991V13.2972L86.5922 13.2388L83.3692 8.04726H82.2813H82.1719V14.8739H82.2813V14.7638Z" fill="white"/>
<path fill-rule="evenodd" clip-rule="evenodd" d="M116.603 33.483H118.645V19.7173H116.603V33.483ZM134.997 24.6755L132.656 30.6433H132.586L130.156 24.6755H127.956L131.6 33.0173L129.522 37.6561H131.653L137.268 24.6755H134.997ZM123.416 31.9184C122.746 31.9184 121.813 31.5826 121.813 30.7501C121.813 29.6876 122.976 29.2802 123.978 29.2802C124.877 29.2802 125.298 29.4751 125.844 29.7405C125.685 31.0155 124.594 31.9184 123.416 31.9184ZM123.662 24.3749C122.183 24.3749 120.652 25.03 120.019 26.4824L121.831 27.2443C122.218 26.4824 122.94 26.2346 123.697 26.2346C124.753 26.2346 125.827 26.8721 125.844 28.0052V28.1472C125.474 27.9347 124.683 27.6154 123.714 27.6154C121.761 27.6154 119.771 28.6955 119.771 30.7149C119.771 32.5559 121.374 33.7429 123.168 33.7429C124.542 33.7429 125.298 33.123 125.774 32.3974H125.844V33.4599H127.815V28.1824C127.815 25.738 126.003 24.3749 123.662 24.3749ZM111.041 26.3513H108.137V21.6332H111.041C112.568 21.6332 113.435 22.905 113.435 23.9928C113.435 25.0598 112.568 26.3513 111.041 26.3513ZM110.989 19.7173H106.096V33.483H108.137V28.2672H110.989C113.252 28.2672 115.477 26.6189 115.477 23.9928C115.477 21.3657 113.252 19.7173 110.989 19.7173ZM84.305 31.9217C82.8954 31.9217 81.7134 30.7325 81.7134 29.1007C81.7134 27.4513 82.8954 26.2456 84.305 26.2456C85.6982 26.2456 86.7915 27.4513 86.7915 29.1007C86.7915 30.7325 85.6982 31.9217 84.305 31.9217ZM86.6503 25.4474H86.5803C86.1217 24.8968 85.2396 24.4002 84.1288 24.4002C81.8021 24.4002 79.668 26.4581 79.668 29.1007C79.668 31.7268 81.8021 33.766 84.1288 33.766C85.2396 33.766 86.1217 33.2694 86.5803 32.7023H86.6503V33.3762C86.6503 35.1677 85.6982 36.1256 84.1638 36.1256C82.9129 36.1256 82.137 35.2205 81.8196 34.4586L80.039 35.2029C80.5501 36.4449 81.9072 37.971 84.1638 37.971C86.5627 37.971 88.5896 36.5517 88.5896 33.0921V24.6843H86.6503V25.4474ZM90.0003 33.483H92.0457V19.7173H90.0003V33.483ZM95.0608 28.9411C95.0072 27.132 96.454 26.2093 97.4937 26.2093C98.3057 26.2093 98.993 26.6178 99.2217 27.2036L95.0608 28.9411ZM101.408 27.3808C101.021 26.3337 99.839 24.4002 97.4236 24.4002C95.0258 24.4002 93.0329 26.2985 93.0329 29.0831C93.0329 31.7092 95.0072 33.766 97.6523 33.766C99.7864 33.766 101.021 32.4535 101.532 31.6905L99.9451 30.6268C99.4165 31.4075 98.6931 31.9217 97.6523 31.9217C96.6116 31.9217 95.8717 31.4427 95.3957 30.5024L101.62 27.9127L101.408 27.3808ZM51.822 25.8371V27.8235H56.5476C56.4065 28.9411 56.0365 29.757 55.4718 30.3251C54.7845 31.0166 53.7088 31.7796 51.822 31.7796C48.9131 31.7796 46.6389 29.42 46.6389 26.4934C46.6389 23.5667 48.9131 21.2071 51.822 21.2071C53.3914 21.2071 54.5372 21.8281 55.3843 22.6264L56.7764 21.2247C55.5955 20.0895 54.0261 19.2208 51.822 19.2208C47.8373 19.2208 44.4873 22.4844 44.4873 26.4934C44.4873 30.5024 47.8373 33.766 51.822 33.766C53.9736 33.766 55.5955 33.0569 56.865 31.7268C58.1695 30.4132 58.5756 28.5689 58.5756 27.0792C58.5756 26.6178 58.5394 26.1917 58.4694 25.8371H51.822ZM63.9469 31.9217C62.5362 31.9217 61.3203 30.7512 61.3203 29.0831C61.3203 27.3985 62.5362 26.2456 63.9469 26.2456C65.3576 26.2456 66.5735 27.3985 66.5735 29.0831C66.5735 30.7512 65.3576 31.9217 63.9469 31.9217ZM63.9469 24.4002C61.3729 24.4002 59.2749 26.369 59.2749 29.0831C59.2749 31.7796 61.3729 33.766 63.9469 33.766C66.5209 33.766 68.6189 31.7796 68.6189 29.0831C68.6189 26.369 66.5209 24.4002 63.9469 24.4002ZM74.1391 31.9217C72.7295 31.9217 71.5125 30.7512 71.5125 29.0831C71.5125 27.3985 72.7295 26.2456 74.1391 26.2456C75.5498 26.2456 76.7667 27.3985 76.7667 29.0831C76.7667 30.7512 75.5498 31.9217 74.1391 31.9217ZM74.1391 24.4002C71.565 24.4002 69.4671 26.369 69.4671 29.0831C69.4671 31.7796 71.565 33.766 74.1391 33.766C76.7142 33.766 78.8122 31.7796 78.8122 29.0831C78.8122 26.369 76.7142 24.4002 74.1391 24.4002Z" fill="white"/>
<path fill-rule="evenodd" clip-rule="evenodd" d="M10.9921 8.76069C10.6736 9.09872 10.4854 9.62504 10.4854 10.3066V34.6371C10.4854 35.3187 10.6736 35.845 10.9921 36.183L11.072 36.2623L24.6196 22.6321V22.3105L11.072 8.68031L10.9921 8.76069Z" fill="#5BC9F4"/>
<path fill-rule="evenodd" clip-rule="evenodd" d="M29.1347 27.1773L24.6191 22.6321V22.3105L29.1357 17.7664L29.2375 17.8248L34.5881 20.8836C36.1159 21.7567 36.1159 23.187 34.5881 24.0602L29.2375 27.1189L29.1347 27.1773Z" fill="url(#paint0_linear)"/>
<path fill-rule="evenodd" clip-rule="evenodd" d="M29.2381 27.1186L24.6197 22.4709L10.9922 36.1826C11.4956 36.7189 12.3274 36.786 13.2642 36.2498L29.2381 27.1186Z" fill="url(#paint1_linear)"/>
<path fill-rule="evenodd" clip-rule="evenodd" d="M29.2381 17.8245L13.2642 8.69327C12.3274 8.15704 11.4956 8.22311 10.9922 8.76043L24.6197 22.471L29.2381 17.8245Z" fill="url(#paint2_linear)"/>
<defs>
<linearGradient id="paint0_linear" x1="33.5952" y1="22.4716" x2="7.13593" y2="22.4716" gradientUnits="userSpaceOnUse">
<stop stop-color="#FEDF00"/>
<stop offset="1" stop-color="#F89B1B"/>
</linearGradient>
<linearGradient id="paint1_linear" x1="26.7293" y1="24.9959" x2="9.15283" y2="54.4027" gradientUnits="userSpaceOnUse">
<stop stop-color="#EF4547"/>
<stop offset="1" stop-color="#C7186D"/>
</linearGradient>
<linearGradient id="paint2_linear" x1="1.73211" y1="-5.20364" x2="16.0817" y2="18.8068" gradientUnits="userSpaceOnUse">
<stop stop-color="#279E70"/>
<stop offset="1" stop-color="#73C168"/>
</linearGradient>
</defs>
</svg>
