<svg width="234" height="82" viewBox="0 0 234 82" fill="none" xmlns="http://www.w3.org/2000/svg">
<path fill-rule="evenodd" clip-rule="evenodd" d="M43.7589 0.81104C42.4006 -0.244634 40.5178 -0.27229 39.1297 0.743046L4.2262 26.2746C2.86577 27.2697 2.29456 29.0381 2.81175 30.6534C3.32893 32.2688 4.81665 33.363 6.4957 33.363H14.2056C13.0755 34.0469 12.3189 35.2968 12.3189 36.7255V72.0768C12.3189 72.846 12.5382 73.5634 12.9171 74.1685H3.87222C1.73365 74.1685 -9.53674e-07 75.9217 -9.53674e-07 78.0843C-9.53674e-07 80.2469 1.73365 82 3.87222 82H78.1278C80.2663 82 82 80.2469 82 78.0843C82 75.9217 80.2663 74.1685 78.1278 74.1685H69.8814C70.2602 73.5634 70.4796 72.846 70.4796 72.0768V36.7255C70.4796 35.2968 69.7229 34.0469 68.5928 33.363H74.2496C75.9079 33.363 77.3822 32.2951 77.9158 30.7074C78.4495 29.1196 77.9241 27.3645 76.6093 26.3426L43.7589 0.81104ZM64.6218 33.363C63.4917 34.0469 62.7351 35.2968 62.7351 36.7255V72.0768C62.7351 72.846 62.9544 73.5634 63.3333 74.1685H44.6733C45.0521 73.5634 45.2714 72.846 45.2714 72.0768V36.7255C45.2714 35.2968 44.5148 34.0469 43.3847 33.363H64.6218ZM39.4137 33.363C38.2836 34.0469 37.527 35.2968 37.527 36.7255V72.0768C37.527 72.846 37.7463 73.5634 38.1252 74.1685H19.4652C19.844 73.5634 20.0633 72.846 20.0633 72.0768V36.7255C20.0633 35.2968 19.3067 34.0469 18.1766 33.363H39.4137ZM41.3291 8.79984L62.8571 25.5315H18.4556L41.3291 8.79984Z" fill="#003399"/>
<path d="M100.525 41.8963H113.448C119.574 41.8963 122.763 39.2435 122.763 34.1906C122.763 30.5694 121.084 28.1692 117.77 27.2008V27.1166C120.203 26.1481 121.42 24.2111 121.42 21.2636C121.42 16.5055 118.315 14.1054 112.315 14.1054H100.525V41.8963ZM104.091 26.0218V17.3897H111.979C116.175 17.3897 117.854 18.6109 117.854 21.6847C117.854 24.7585 116.175 26.0218 112.147 26.0218H104.091ZM104.091 38.6119V29.3061H112.483C117.224 29.3061 119.112 30.6536 119.112 33.9801C119.112 37.2223 117.308 38.6119 112.902 38.6119H104.091Z" fill="#003399"/>
<path d="M132.617 42.4015C135.302 42.4015 137.61 41.3489 139.162 39.4119L139.666 41.8963H142.267V30.822C142.267 25.8533 139.582 23.2848 134.421 23.2848C131.778 23.2848 129.47 23.9585 127.876 25.2638V28.6745C129.512 27.1587 131.61 26.3586 133.96 26.3586C137.274 26.3586 138.827 27.9166 138.827 31.2431V31.8747C137.023 30.9904 135.092 30.5694 133.204 30.5694C128.883 30.5694 126.323 32.8432 126.323 36.5907C126.323 40.1699 128.715 42.4015 132.617 42.4015ZM133.372 39.3277C130.98 39.3277 129.722 38.3171 129.722 36.4223C129.722 34.4854 131.064 33.5169 133.834 33.5169C135.596 33.5169 137.316 33.8959 138.827 34.6959V36.1697C137.358 38.3171 135.806 39.3277 133.372 39.3277Z" fill="#003399"/>
<path d="M147.753 41.8963H151.193V30.3167C152.368 27.9166 154.13 26.5271 156.48 26.5271C158.872 26.5271 160.088 27.9587 160.088 30.9062V41.8963H163.529V30.6115C163.529 25.8112 161.305 23.2848 157.235 23.2848C154.508 23.2848 152.41 24.4217 150.816 26.6534L150.354 23.7901H147.753V41.8963Z" fill="#003399"/>
<path d="M169.101 41.8963H172.541V33.5169L180.262 41.8963H184.961L176.108 32.2958L184.793 23.7901H180.178L172.541 31.2852V12H169.101V41.8963Z" fill="#003399"/>
<path d="M106.483 80.4947H110.049V56.0303H119.532V52.7038H97V56.0303H106.483V80.4947Z" fill="#003399"/>
<path d="M118.865 80.4947H122.305V69.3784C123.312 66.8098 125.159 65.4203 127.718 65.4203C128.18 65.4203 128.683 65.4624 129.103 65.5466V62.0096C128.767 61.9253 128.39 61.8832 127.844 61.8832C125.201 61.8832 123.271 62.978 121.97 65.4624L121.466 62.3885H118.865V80.4947Z" fill="#003399"/>
<path d="M136.837 81C139.523 81 141.83 79.9473 143.383 78.0104L143.886 80.4947H146.488V69.4205C146.488 64.4518 143.803 61.8832 138.642 61.8832C135.998 61.8832 133.69 62.557 132.096 63.8623V67.273C133.732 65.7571 135.83 64.9571 138.18 64.9571C141.495 64.9571 143.047 66.5151 143.047 69.8415V70.4731C141.243 69.5889 139.313 69.1678 137.425 69.1678C133.103 69.1678 130.544 71.4416 130.544 75.1892C130.544 78.7683 132.935 81 136.837 81ZM137.593 77.9262C135.201 77.9262 133.942 76.9156 133.942 75.0208C133.942 73.0838 135.285 72.1153 138.054 72.1153C139.816 72.1153 141.537 72.4943 143.047 73.2943V74.7681C141.579 76.9156 140.026 77.9262 137.593 77.9262Z" fill="#003399"/>
<path d="M151.973 80.4947H155.414V68.9152C156.588 66.5151 158.351 65.1255 160.7 65.1255C163.092 65.1255 164.309 66.5572 164.309 69.5047V80.4947H167.75V69.2099C167.75 64.4097 165.526 61.8832 161.456 61.8832C158.728 61.8832 156.63 63.0201 155.036 65.2518L154.574 62.3885H151.973V80.4947Z" fill="#003399"/>
<path d="M178.816 81C183.809 81 186.452 78.9788 186.452 75.2734C186.452 72.1996 184.648 70.5995 181.082 69.9258L178.816 69.5047C176.256 69.0415 175.417 68.4941 175.417 67.3151C175.417 65.8413 176.76 64.9571 179.361 64.9571C181.627 64.9571 183.809 65.6308 185.361 66.8519V63.3149C183.977 62.4306 181.753 61.8832 179.361 61.8832C174.746 61.8832 172.061 63.9465 172.061 67.5256C172.061 70.3047 173.697 71.989 177.263 72.6627L179.529 73.0838C182.047 73.547 183.096 74.0944 183.096 75.4418C183.096 76.9998 181.627 77.9262 178.774 77.9262C176.047 77.9262 173.571 77.084 171.893 75.6103V79.2315C173.445 80.3263 175.963 81 178.816 81Z" fill="#003399"/>
<path d="M191.325 80.4947H194.766V65.336H199.969V62.3885H194.766V56.6619C194.766 54.346 195.815 53.2091 198.123 53.2091C199.088 53.2091 200.053 53.4197 200.976 53.9249V50.7248C200.137 50.3037 198.836 50.0932 197.535 50.0932C193.423 50.0932 191.325 52.1985 191.325 56.5777V62.3885H187.968V65.336H191.325V80.4947Z" fill="#003399"/>
<path d="M211.558 81C214.243 81 216.509 80.3263 218.229 79.0631V75.526C216.467 77.084 214.327 77.8841 211.81 77.8841C207.824 77.8841 205.264 75.9471 204.803 72.6206H219.027C219.111 71.9048 219.194 71.1048 219.194 70.3047C219.194 65.2097 215.712 61.8832 210.467 61.8832C204.886 61.8832 201.194 65.6308 201.194 71.3153C201.194 77.2946 205.222 81 211.558 81ZM204.844 69.7152C205.348 66.7256 207.362 64.9992 210.425 64.9992C213.53 64.9992 215.46 66.6835 215.838 69.7152H204.844Z" fill="#003399"/>
<path d="M223.762 80.4947H227.203V69.3784C228.21 66.8098 230.056 65.4203 232.615 65.4203C233.077 65.4203 233.58 65.4624 234 65.5466V62.0096C233.664 61.9253 233.287 61.8832 232.741 61.8832C230.098 61.8832 228.168 62.978 226.867 65.4624L226.363 62.3885H223.762V80.4947Z" fill="#003399"/>
</svg>
