<svg width="319" height="320" viewBox="0 0 319 320" fill="none" xmlns="http://www.w3.org/2000/svg">
<g opacity="0.05">
<path d="M159.511 0C71.4162 0 0 71.4048 0 159.477C0 247.595 71.4162 319.011 159.511 319.011C247.607 319.011 319 247.584 319 159.477C319 71.4048 247.607 0 159.511 0ZM159.511 302.675C80.4174 302.675 16.3367 238.56 16.3367 159.466C16.3367 80.406 80.4174 16.3139 159.511 16.3139C238.583 16.3139 302.675 80.406 302.675 159.466C302.663 238.56 238.571 302.675 159.511 302.675Z" fill="black"/>
<path d="M159.387 180.804C172.039 180.804 182.296 170.545 182.296 157.895V70.323C182.296 40.9079 136.478 40.8644 136.478 70.323V157.895C136.478 170.545 146.734 180.804 159.387 180.804Z" fill="black"/>
<path d="M138.242 257.047C145.848 275.29 172.266 275.597 180.305 257.558C184.282 248.633 182.007 237.898 174.773 231.318C167.54 224.739 156.592 223.559 148.104 228.365C138.189 233.978 133.853 246.516 138.242 257.047Z" fill="black"/>
</g>
</svg>
