<svg width="25" height="27" viewBox="0 0 25 27" fill="none" xmlns="http://www.w3.org/2000/svg">
<path d="M18.082 11.2843C21.482 8.47526 28.476 -1.56374 17.547 0.208259C12.788 0.933259 5.79298 5.56226 4.38498 10.8683C3.65275 9.45427 2.84181 8.08245 1.95598 6.75926C0.644983 4.93826 -0.861017 6.34226 0.598983 8.21526C4.72798 13.5733 7.59298 20.0223 7.59298 26.5243C7.86083 22.7876 7.36405 19.0355 6.13298 15.4973C6.76039 15.7021 7.416 15.8073 8.07598 15.8093C10.2656 19.4971 13.5873 22.3794 17.547 24.0273C21.047 25.4273 25.707 24.5993 23.813 18.9823C22.6338 15.9453 20.6532 13.2849 18.082 11.2843V11.2843ZM18.568 1.50826C24.639 0.832259 18.131 8.37426 15.994 9.77826C13.999 8.47526 11.525 7.33126 9.09898 7.64326C10.845 5.40826 15.07 1.92126 18.568 1.50826ZM9.04798 9.30826C10.7964 9.33383 12.4873 9.93718 13.857 11.0243C12.5287 11.7106 11.0744 12.1189 9.58298 12.2243C7.34798 12.2203 6.90998 9.51526 9.04798 9.30826ZM17.448 21.0633C14.582 20.2313 11.911 17.9423 9.96798 15.6013C11.6014 15.2718 13.1635 14.6556 14.582 13.7813C15.1294 13.5007 15.6496 13.1699 16.136 12.7933C18.0161 14.3879 19.4407 16.4518 20.265 18.7753C20.948 21.3233 19.099 21.5313 17.45 21.0633H17.448Z" fill="#F5A623"/>
</svg>
