<svg width="41" height="25" viewBox="0 0 41 25" fill="none" xmlns="http://www.w3.org/2000/svg">
<path d="M12.1757 0C5.44751 0.0425314 0 5.52829 0 12.2804C0 19.0591 5.48959 24.5601 12.2543 24.5601C15.4275 24.5601 18.3216 23.3479 20.499 21.3604L20.4986 21.36H20.5002C20.9469 20.9529 21.3629 20.5125 21.7448 20.0448H19.2348C18.8992 19.6394 18.5944 19.2157 18.3208 18.7792H22.6501C22.9145 18.3574 23.1519 17.9191 23.3646 17.4652H17.6069C17.4103 17.0434 17.2397 16.6135 17.0945 16.1752H23.877C24.2867 14.9509 24.5076 13.6408 24.5076 12.2804C24.5076 11.3769 24.4095 10.4978 24.2256 9.6499H16.7345C16.828 9.21333 16.9446 8.78262 17.0836 8.36034H23.8694C23.7179 7.90982 23.5415 7.47157 23.3411 7.04547H17.6061C17.8128 6.60215 18.0473 6.17234 18.3087 5.75546H22.6355C22.3471 5.29527 22.0288 4.85578 21.6848 4.44149H19.2725C19.6459 4.00065 20.0559 3.58603 20.5009 3.20167C18.3243 1.21327 15.4299 0.000337365 12.255 0.000337365C12.2274 -1.85425e-07 12.2013 0 12.1757 0Z" fill="#931B1D"/>
<path d="M40.9453 12.2843C40.9466 19.0655 35.4634 24.5644 28.6939 24.5664C21.9274 24.5685 16.44 19.0717 16.4379 12.2893V12.2843C16.4358 5.50095 21.9208 0.00168859 28.6885 8.35672e-07C35.4559 -0.00247454 40.9438 5.49465 40.9455 12.2775C40.9453 12.2775 40.9453 12.2805 40.9453 12.2843Z" fill="#F16622"/>
<path d="M40.9453 12.4199C40.9466 19.2016 35.4634 24.7013 28.6939 24.7025C21.9274 24.705 16.44 19.2075 16.4379 12.4262V12.4199C16.4358 5.63788 21.9208 0.138163 28.6885 0.136475C35.4559 0.134 40.9438 5.63113 40.9455 12.4135C40.9453 12.4136 40.9453 12.4175 40.9453 12.4199Z" fill="#F7981D"/>
<path d="M12.1757 0.139517C5.44751 0.182836 0 5.66736 0 12.4199C0 19.1991 5.48959 24.7004 12.2543 24.7004C15.4275 24.7004 18.3216 23.4874 20.499 21.5003L20.4986 21.4991H20.5002C20.9469 21.0923 21.3629 20.6533 21.7448 20.1838H19.2348C18.8992 19.7792 18.5944 19.3565 18.3208 18.9199H22.6501C22.9145 18.4977 23.1519 18.0582 23.3646 17.6047H17.6069C17.4103 17.1825 17.2397 16.7526 17.0945 16.3152H23.877C24.2867 15.09 24.5076 13.7803 24.5076 12.4199C24.5076 11.5169 24.4095 10.6373 24.2256 9.78987H16.7345C16.828 9.35375 16.9446 8.92214 17.0836 8.50031H23.8694C23.7179 8.04946 23.5415 7.61109 23.3411 7.18465H17.6061C17.8128 6.74302 18.0473 6.31152 18.3087 5.89509H22.6355C22.3471 5.43535 22.0288 4.9962 21.6848 4.58022H19.2725C19.6459 4.14028 20.0559 3.72554 20.5009 3.3404C18.3243 1.35234 15.4299 0.139404 12.255 0.139404C12.2274 0.139517 12.2013 0.139517 12.1757 0.139517Z" fill="#CB2026"/>
<path d="M16.6604 15.5464L16.8242 14.4353C16.735 14.4353 16.6036 14.4732 16.4878 14.4732C16.0339 14.4732 15.9834 14.2315 16.0129 14.0526L16.3796 11.7846H17.0696L17.2364 10.5548H16.5859L16.7186 9.79102H15.4135C15.3853 9.81959 14.6431 14.0908 14.6431 14.6099C14.6431 15.38 15.0738 15.723 15.6825 15.718C16.1581 15.7136 16.5299 15.5818 16.6604 15.5464Z" fill="white"/>
<path d="M17.0745 13.4274C17.0745 15.2753 18.2908 15.7148 19.3278 15.7148C20.2852 15.7148 20.7058 15.4996 20.7058 15.4996L20.9361 14.2383C20.9361 14.2383 20.2082 14.5617 19.5505 14.5617C18.1498 14.5617 18.3953 13.5143 18.3953 13.5143H21.0472C21.0472 13.5143 21.2177 12.6663 21.2177 12.3211C21.2177 11.4602 20.7891 10.4102 19.3572 10.4102C18.045 10.4105 17.0745 11.8263 17.0745 13.4274ZM19.3627 11.5804C20.0987 11.5804 19.9627 12.4098 19.9627 12.4768H18.5144C18.5139 12.3914 18.6509 11.5804 19.3627 11.5804Z" fill="white"/>
<path d="M27.6238 15.5463L27.8575 14.1195C27.8575 14.1195 27.2171 14.4429 26.778 14.4429C25.8527 14.4429 25.4817 13.733 25.4817 12.9735C25.4817 11.4292 26.2779 10.5796 27.1649 10.5796C27.8293 10.5796 28.3631 10.9543 28.3631 10.9543L28.5758 9.56998C28.5758 9.56998 27.7847 9.24829 27.1069 9.24829C25.6005 9.24829 24.1345 10.5564 24.1345 13.0176C24.1345 14.647 24.9264 15.7251 26.4833 15.7251C26.9231 15.7253 27.6238 15.5463 27.6238 15.5463Z" fill="white"/>
<path d="M9.48484 10.4302C8.59022 10.4302 7.90432 10.7178 7.90432 10.7178L7.71529 11.8444C7.71529 11.8444 8.28193 11.6145 9.13706 11.6145C9.6229 11.6145 9.97778 11.6689 9.97778 12.065C9.97778 12.305 9.93446 12.3938 9.93446 12.3938C9.93446 12.3938 9.55179 12.3614 9.37413 12.3614C8.24626 12.3614 7.06067 12.8439 7.06067 14.2997C7.06067 15.4457 7.83782 15.7092 8.31996 15.7092C9.24068 15.7092 9.63641 15.111 9.65835 15.1084L9.61536 15.6085H10.7639L11.2767 12.0068C11.2767 10.4793 9.94661 10.4302 9.48484 10.4302ZM9.76479 13.3612C9.78965 13.5814 9.62673 14.6129 8.84114 14.6129C8.43608 14.6129 8.33042 14.3022 8.33042 14.1186C8.33042 13.7611 8.52451 13.3313 9.48102 13.3313C9.7029 13.3313 9.72687 13.3557 9.76479 13.3612Z" fill="white"/>
<path d="M12.4986 15.682C12.792 15.682 14.4719 15.7574 14.4719 14.0202C14.4719 12.396 12.9171 12.7164 12.9171 12.0638C12.9171 11.7401 13.1706 11.6365 13.6336 11.6365C13.8176 11.6365 14.5253 11.6959 14.5253 11.6959L14.6904 10.5407C14.6904 10.5407 14.2323 10.4387 13.4871 10.4387C12.521 10.4387 11.5421 10.8235 11.5421 12.145C11.5421 13.6434 13.1756 13.4919 13.1756 14.1225C13.1756 14.5436 12.7188 14.5781 12.3668 14.5781C11.7589 14.5781 11.2112 14.3688 11.2086 14.3785L11.0347 15.5207C11.0651 15.5313 11.4036 15.682 12.4986 15.682Z" fill="white"/>
<path d="M38.4311 9.39417L38.1502 11.1439C38.1502 11.1439 37.6589 10.4649 36.8906 10.4649C35.6945 10.4649 34.6984 11.9089 34.6984 13.569C34.6984 14.6405 35.2293 15.6893 36.3164 15.6893C37.0982 15.6893 37.5306 15.1432 37.5306 15.1432L37.4738 15.6093H38.7427L39.7401 9.39136L38.4311 9.39417ZM37.8256 12.8074C37.8256 13.4974 37.4838 14.4189 36.7768 14.4189C36.307 14.4189 36.0877 14.024 36.0877 13.4043C36.0877 12.3913 36.5416 11.721 37.1141 11.721C37.5844 11.7211 37.8256 12.0453 37.8256 12.8074Z" fill="white"/>
<path d="M2.41996 15.6146L3.21523 10.9202L3.33101 15.6146H4.23025L5.90709 10.9202L5.16402 15.6146H6.49949L7.5289 9.38989H5.46309L4.17691 13.2085L4.10997 9.38989H2.20652L1.16281 15.6146H2.41996Z" fill="white"/>
<path d="M22.5224 15.6234C22.9022 13.4599 22.9725 11.7021 23.8794 12.0226C24.0381 11.1855 24.1909 10.8618 24.3635 10.507C24.3635 10.507 24.2827 10.4897 24.1117 10.4897C23.5287 10.4897 23.0954 11.2896 23.0954 11.2896L23.2107 10.5553H21.9956L21.1827 15.6234H22.5224Z" fill="white"/>
<path d="M30.634 10.4302C29.7394 10.4302 29.0539 10.7178 29.0539 10.7178L28.8653 11.8444C28.8653 11.8444 29.4307 11.6145 30.2866 11.6145C30.772 11.6145 31.1278 11.6689 31.1278 12.065C31.1278 12.305 31.0841 12.3938 31.0841 12.3938C31.0841 12.3938 30.7014 12.3614 30.5224 12.3614C29.394 12.3614 28.2098 12.8439 28.2098 14.2997C28.2098 15.4457 28.9874 15.7092 29.4691 15.7092C30.3898 15.7092 30.786 15.111 30.807 15.1084L30.7645 15.6085H31.9139L32.4263 12.0068C32.4267 10.4793 31.0971 10.4302 30.634 10.4302ZM30.9144 13.3612C30.9392 13.5814 30.7771 14.6129 29.9903 14.6129C29.5857 14.6129 29.4808 14.3022 29.4808 14.1186C29.4808 13.7611 29.6749 13.3313 30.6297 13.3313C30.8529 13.3313 30.8761 13.3557 30.9144 13.3612Z" fill="white"/>
<path d="M33.4757 15.6234C33.8558 13.4599 33.9262 11.7021 34.8329 12.0226C34.9917 11.1855 35.1445 10.8618 35.318 10.507C35.318 10.507 35.2359 10.4897 35.0659 10.4897C34.4811 10.4897 34.0491 11.2896 34.0491 11.2896L34.1654 10.5553H32.9495L32.1361 15.6231H33.4758L33.4757 15.6234Z" fill="white"/>
</svg>
