<svg width="72" height="23" viewBox="0 0 72 23" fill="none" xmlns="http://www.w3.org/2000/svg">
<path d="M29.6372 0L26.0459 22.7474H31.7861L35.3752 0C35.3752 0 29.6372 0 29.6372 0ZM46.9518 9.26603C44.9459 8.25775 43.7162 7.57724 43.7162 6.54599C43.7407 5.60835 44.756 4.64774 47.0234 4.64774C48.8884 4.60006 50.2591 5.04616 51.299 5.49002L51.8199 5.72667L52.6003 0.967344C51.4665 0.521242 49.6688 0.0297057 47.4482 0.0297057C41.7796 0.0297057 37.7881 3.02959 37.7633 7.32011C37.7164 10.4863 40.621 12.2432 42.7947 13.2972C45.0153 14.3784 45.7712 15.0793 45.7712 16.0399C45.7466 17.5148 43.9756 18.1953 42.3231 18.1953C40.0334 18.1953 38.8034 17.8448 36.9363 17.023L36.1804 16.6725L35.3777 21.6186C36.7261 22.2287 39.2059 22.7657 41.7799 22.7931C47.8041 22.7931 51.724 19.8387 51.7733 15.2661C51.793 12.7577 50.2613 10.8365 46.9518 9.26603ZM67.3165 0.0703971H62.8754C61.5068 0.0703971 60.4669 0.471065 59.8744 1.90049L51.3478 22.7474H57.372L59.0312 18.234H65.7711L66.632 22.7657H71.9452L67.3165 0.0703971ZM60.7019 13.6791C60.8181 13.6906 63.0142 6.31133 63.0142 6.31133L64.7629 13.6791C64.7629 13.6791 61.8357 13.6791 60.7019 13.6791ZM21.2494 0L15.6255 15.4548L15.0128 12.407C13.9729 8.89032 10.7127 5.06888 7.07434 3.17064L12.2242 22.7247H18.2978L27.323 0.002495H21.2494V0Z" fill="#4282B7"/>
<path d="M13.1204 2.93437C12.6822 1.19989 11.2844 0.0300907 9.38616 0.00512695H0.479421L0.387695 0.426014C7.33557 2.16948 13.1673 7.53418 15.0592 12.5803L13.1204 2.93437Z" fill="#EFC75E"/>
</svg>
