<svg width="616" height="448" viewBox="0 0 616 448" fill="none" xmlns="http://www.w3.org/2000/svg">
<path d="M583.869 2.83615C589.396 -1.61105 597.48 -0.732286 601.923 4.79878C606.367 10.3299 605.488 18.4205 599.962 22.8677L572.993 44.6685L581.268 190.187C581.657 197.276 576.232 203.337 569.149 203.726C562.067 204.114 556.01 198.685 555.622 191.596L546.974 39.521C546.76 35.529 548.401 31.4953 551.75 28.8007L583.869 2.83615Z" fill="#363636"/>
<path d="M550.99 249.269L517.635 255.452L513.008 230.186L546.363 224.004L550.99 249.269Z" fill="#363636"/>
<path d="M500.083 267.139L470.217 286.816L456.137 265.375L486.003 245.699L500.083 267.139Z" fill="#363636"/>
<path d="M458.43 88.8974L525.861 99.0291C532.887 100.085 537.727 106.643 536.672 113.675C536.389 115.569 535.704 117.303 534.721 118.807L475.918 226.702C473.19 231.715 467.609 234.181 462.292 233.182L462.291 233.194L369.919 215.902L374.646 190.636L457.862 206.214L503.887 121.765L454.61 114.362L458.432 88.8958L458.43 88.8974Z" fill="#363636"/>
<path d="M353.318 206.594L296.48 165.455C292.272 162.404 290.457 157.275 291.42 152.487L306.125 37.2069C307.013 30.175 313.431 25.1959 320.457 26.0847C321.74 26.2464 322.953 26.5949 324.076 27.0952L455.729 85.8092L445.27 109.263L329.384 57.5753L317.713 149.067L368.404 185.759L353.318 206.596V206.594Z" fill="#363636"/>
<path d="M572.106 179.861C582.652 179.861 592.202 184.141 599.115 191.059C606.028 197.98 610.304 207.536 610.304 218.091C610.304 228.646 606.028 238.204 599.115 245.123C592.202 252.041 582.652 256.322 572.106 256.322C561.559 256.322 552.009 252.041 545.097 245.123C538.182 238.204 533.907 228.646 533.907 218.091C533.907 207.536 538.184 197.978 545.097 191.059C552.009 184.141 561.559 179.861 572.106 179.861ZM580.911 209.278C578.66 207.026 575.546 205.63 572.106 205.63C568.665 205.63 565.553 207.024 563.301 209.278C561.048 211.533 559.655 214.648 559.655 218.091C559.655 221.533 561.048 224.649 563.301 226.904C565.551 229.157 568.665 230.552 572.106 230.552C575.546 230.552 578.659 229.158 580.911 226.904C583.162 224.651 584.557 221.534 584.557 218.091C584.557 214.648 583.164 211.533 580.911 209.278Z" fill="#363636"/>
<path d="M441.759 251.404C452.306 251.404 461.856 255.685 468.768 262.603C475.681 269.522 479.958 279.08 479.958 289.635C479.958 300.19 475.681 309.748 468.768 316.667C461.856 323.585 452.306 327.865 441.759 327.865C431.213 327.865 421.663 323.585 414.75 316.667C407.837 309.748 403.561 300.19 403.561 289.635C403.561 279.08 407.837 269.522 414.75 262.603C421.663 255.685 431.213 251.404 441.759 251.404ZM450.564 280.822C448.314 278.568 445.2 277.174 441.759 277.174C438.319 277.174 435.205 278.568 432.954 280.822C430.703 283.077 429.308 286.191 429.308 289.636C429.308 293.08 430.701 296.195 432.954 298.449C435.205 300.702 438.319 302.098 441.759 302.098C445.2 302.098 448.312 300.704 450.564 298.449C452.815 296.196 454.21 293.08 454.21 289.636C454.21 286.193 452.817 283.077 450.564 280.824V280.822Z" fill="#363636"/>
<path d="M362.286 66.2993L326.041 157.658L318.096 154.503L354.34 63.1444L362.286 66.2993Z" fill="#363636"/>
<path d="M389.753 81.2788L344.505 179.908L336.728 176.351L381.975 77.7237L389.753 81.2788Z" fill="#363636"/>
<path d="M479.948 106.695L440.653 209.042L432.674 205.989L471.969 103.641L479.948 106.695Z" fill="#363636"/>
<path d="M427.176 128.525L397.366 201.316L389.454 198.063L419.266 125.27L427.176 128.525Z" fill="#363636"/>
<path d="M60.092 145.297C64.8321 145.297 68.6741 149.142 68.6741 153.886C68.6741 158.63 64.8321 162.475 60.092 162.475H47.6563C42.9162 162.475 39.0742 158.63 39.0742 153.886C39.0742 149.142 42.9162 145.297 47.6563 145.297H60.092Z" fill="#363636"/>
<path d="M17.2025 145.297C21.9425 145.297 25.7845 149.142 25.7845 153.886C25.7845 158.63 21.9425 162.475 17.2025 162.475H8.58207C3.84202 162.475 0 158.63 0 153.886C0 149.142 3.84202 145.297 8.58207 145.297H17.2025Z" fill="#363636"/>
<path d="M91.3964 160.5C86.6747 160.555 82.8026 156.769 82.7477 152.044C82.6927 147.318 86.4747 143.443 91.1964 143.388C105.89 143.159 119.91 142.822 132.936 142.509C248.711 139.724 289.457 138.744 297.319 224.563C297.746 229.27 294.277 233.431 289.575 233.857C284.872 234.284 280.715 230.813 280.288 226.107C273.889 156.241 237.3 157.121 133.339 159.621C120.49 159.929 106.658 160.263 91.3964 160.5ZM290.885 269.86C286.163 269.86 282.336 266.028 282.336 261.304C282.336 256.579 286.165 252.749 290.885 252.749C302.866 252.782 312.432 252.238 319.778 251.821C333.097 251.064 340.288 250.656 345.936 255.11C353.095 260.756 352.635 268.895 351.634 286.575C351.512 288.743 351.379 291.079 351.251 293.517C358.292 293.617 364.206 293.509 369.19 293.417C382.757 293.169 390.479 293.027 396.594 297.526C404.583 303.405 405.096 312.698 405.202 333.287H526.774C531.514 333.287 535.356 337.132 535.356 341.876C535.356 346.62 531.514 350.465 526.774 350.465H396.69V350.432C391.985 350.432 388.16 346.623 388.142 341.909L388.123 337.349C388.058 319.98 388.028 312.495 386.472 311.349C384.971 310.244 379.345 310.347 369.461 310.529C362.3 310.659 353.287 310.826 342.006 310.405C337.284 310.239 333.592 306.272 333.759 301.548C334.013 294.958 334.297 289.94 334.54 285.635C335.196 274.049 335.498 268.716 335.346 268.596C334.76 268.134 329.838 268.415 320.721 268.933C313.356 269.352 303.762 269.899 290.888 269.86H290.885Z" fill="#363636"/>
<path d="M555.162 349.24C550.422 349.24 546.58 345.394 546.58 340.65C546.58 335.906 550.422 332.061 555.162 332.061H567.598C572.338 332.061 576.18 335.906 576.18 340.65C576.18 345.394 572.338 349.24 567.598 349.24H555.162Z" fill="#363636"/>
<path d="M598.08 349.24C593.34 349.24 589.498 345.394 589.498 340.65C589.498 335.906 593.34 332.061 598.08 332.061H606.7C611.44 332.061 615.283 335.906 615.283 340.65C615.283 345.394 611.44 349.24 606.7 349.24H598.08Z" fill="#363636"/>
<path d="M426.236 94.9384L406.915 126.097L399.64 121.602L418.96 90.4428L426.236 94.9384Z" fill="#363636"/>
<path d="M3.69712 205.609H3.77524V205.465H3.85337V205.391H3.77524V204.977H3.69987L3.35335 205.399V205.465H3.69712V205.609ZM3.45262 205.391L3.69712 205.091V205.391H3.45262ZM4.1607 205.621C4.32156 205.621 4.40612 205.509 4.40612 205.293C4.40612 205.078 4.32156 204.966 4.1607 204.966C3.99985 204.966 3.91528 205.078 3.91528 205.293C3.91528 205.509 3.99985 205.621 4.1607 205.621ZM4.1607 205.547C4.0504 205.547 3.99433 205.462 3.99433 205.293C3.99433 205.125 4.0504 205.04 4.1607 205.04C4.271 205.04 4.32707 205.125 4.32707 205.293C4.32707 205.462 4.271 205.547 4.1607 205.547ZM4.81915 205.609H4.89728V205.465H4.97541V205.391H4.89728V204.977H4.82191L4.47538 205.399V205.465H4.81915V205.609ZM4.57465 205.391L4.81915 205.091V205.391H4.57465Z" fill="#363636"/>
<path d="M469.599 192.167L393.077 171.646L395.29 163.359L471.812 183.879L469.599 192.167Z" fill="#363636"/>
<path d="M315.254 125.887L373.624 163.809L370.13 169.193L311.759 131.271L315.254 125.887Z" fill="#363636"/>
<path d="M324.96 78.2168L387.939 118.7L384.47 124.111L321.491 83.6261L324.96 78.2168Z" fill="#363636"/>
<path d="M420.064 133.313L492.349 153.149L490.102 161.403L417.816 141.567L420.064 133.313Z" fill="#363636"/>
<path d="M15.1005 389.53V389.41H15.1163V389.53H15.1005ZM15.1743 389.517L15.1764 389.53C15.1723 389.53 15.1686 389.531 15.1654 389.531C15.16 389.531 15.1559 389.53 15.153 389.528C15.1501 389.527 15.148 389.524 15.1468 389.522C15.1456 389.519 15.145 389.513 15.145 389.504V389.455H15.1343V389.443H15.145V389.422L15.1596 389.413V389.443H15.1743V389.455H15.1596V389.505C15.1596 389.509 15.1598 389.512 15.1603 389.513C15.1609 389.514 15.1617 389.515 15.1628 389.516C15.164 389.517 15.1657 389.517 15.1679 389.517C15.1695 389.517 15.1717 389.517 15.1743 389.517ZM15.2293 389.504L15.2437 389.502C15.2446 389.507 15.2468 389.512 15.2505 389.515C15.2542 389.518 15.2594 389.52 15.2661 389.52C15.2728 389.52 15.2778 389.518 15.2811 389.516C15.2843 389.513 15.286 389.51 15.286 389.506C15.286 389.503 15.2845 389.5 15.2817 389.498C15.2797 389.497 15.2747 389.495 15.2667 389.493C15.2559 389.49 15.2485 389.488 15.2443 389.486C15.2402 389.484 15.237 389.481 15.2349 389.478C15.2328 389.474 15.2317 389.47 15.2317 389.466C15.2317 389.462 15.2326 389.459 15.2343 389.456C15.2361 389.452 15.2385 389.45 15.2415 389.447C15.2438 389.446 15.2469 389.444 15.2508 389.443C15.2548 389.442 15.259 389.441 15.2635 389.441C15.2703 389.441 15.2762 389.442 15.2813 389.444C15.2865 389.446 15.2903 389.449 15.2927 389.452C15.2952 389.456 15.2969 389.46 15.2978 389.466L15.2835 389.468C15.2828 389.463 15.2809 389.46 15.2778 389.457C15.2747 389.455 15.2703 389.453 15.2646 389.453C15.2578 389.453 15.253 389.454 15.2502 389.457C15.2473 389.459 15.2459 389.462 15.2459 389.465C15.2459 389.466 15.2464 389.468 15.2476 389.47C15.2488 389.471 15.2507 389.473 15.2533 389.474C15.2547 389.474 15.259 389.475 15.2662 389.477C15.2766 389.48 15.2838 389.482 15.2878 389.484C15.292 389.486 15.2952 389.488 15.2975 389.492C15.2999 389.495 15.301 389.499 15.301 389.504C15.301 389.509 15.2996 389.514 15.2967 389.518C15.2939 389.522 15.2898 389.526 15.2844 389.528C15.2791 389.53 15.273 389.532 15.2662 389.532C15.255 389.532 15.2464 389.529 15.2405 389.525C15.2346 389.52 15.2309 389.513 15.2293 389.504ZM15.3776 389.502L15.3927 389.504C15.3904 389.513 15.3859 389.519 15.3795 389.524C15.373 389.529 15.3648 389.532 15.3547 389.532C15.3421 389.532 15.3321 389.528 15.3246 389.52C15.3173 389.512 15.3136 389.501 15.3136 389.487C15.3136 389.473 15.3173 389.461 15.3248 389.453C15.3323 389.445 15.342 389.441 15.3539 389.441C15.3655 389.441 15.3749 389.445 15.3822 389.453C15.3896 389.461 15.3932 389.472 15.3932 389.486C15.3932 389.487 15.3932 389.488 15.3932 389.49H15.3287C15.3292 389.5 15.3319 389.507 15.3368 389.512C15.3416 389.517 15.3476 389.52 15.3548 389.52C15.3602 389.52 15.3648 389.518 15.3686 389.515C15.3724 389.513 15.3754 389.508 15.3776 389.502ZM15.3295 389.478H15.3778C15.3771 389.471 15.3753 389.465 15.3722 389.462C15.3676 389.456 15.3615 389.453 15.3541 389.453C15.3474 389.453 15.3417 389.456 15.3371 389.46C15.3325 389.465 15.33 389.471 15.3295 389.478ZM15.4676 389.519C15.4622 389.524 15.457 389.527 15.4519 389.529C15.4469 389.531 15.4415 389.532 15.4358 389.532C15.4263 389.532 15.419 389.529 15.4139 389.525C15.4088 389.52 15.4063 389.514 15.4063 389.507C15.4063 389.503 15.4072 389.499 15.4091 389.495C15.4111 389.492 15.4136 389.489 15.4167 389.487C15.4198 389.485 15.4233 389.483 15.4273 389.482C15.4301 389.481 15.4345 389.481 15.4403 389.48C15.4521 389.478 15.4608 389.477 15.4664 389.475C15.4665 389.473 15.4665 389.472 15.4665 389.471C15.4665 389.465 15.4651 389.461 15.4623 389.458C15.4586 389.455 15.453 389.453 15.4456 389.453C15.4388 389.453 15.4337 389.455 15.4303 389.457C15.4271 389.459 15.4247 389.464 15.4231 389.47L15.4088 389.468C15.4101 389.462 15.4122 389.457 15.4152 389.453C15.4182 389.449 15.4225 389.446 15.4281 389.444C15.4338 389.442 15.4403 389.441 15.4478 389.441C15.4551 389.441 15.4611 389.442 15.4657 389.444C15.4704 389.446 15.4737 389.448 15.4759 389.451C15.4781 389.453 15.4796 389.456 15.4805 389.46C15.481 389.463 15.4812 389.467 15.4812 389.474V389.493C15.4812 389.507 15.4815 389.516 15.4821 389.519C15.4828 389.523 15.484 389.526 15.4858 389.53H15.4705C15.469 389.527 15.4681 389.523 15.4676 389.519ZM15.4664 389.486C15.4611 389.488 15.4531 389.49 15.4425 389.492C15.4364 389.493 15.4322 389.494 15.4297 389.495C15.4272 389.496 15.4253 389.497 15.4239 389.5C15.4226 389.502 15.4219 389.504 15.4219 389.506C15.4219 389.51 15.4233 389.514 15.4263 389.516C15.4293 389.519 15.4336 389.52 15.4393 389.52C15.4449 389.52 15.45 389.519 15.4544 389.517C15.4587 389.514 15.462 389.511 15.464 389.506C15.4656 389.503 15.4664 389.498 15.4664 389.492V389.486ZM15.504 389.53V389.443H15.5171V389.455C15.5198 389.451 15.5234 389.448 15.5279 389.445C15.5324 389.443 15.5376 389.441 15.5433 389.441C15.5497 389.441 15.5549 389.443 15.559 389.445C15.5631 389.448 15.566 389.452 15.5677 389.456C15.5746 389.446 15.5835 389.441 15.5944 389.441C15.603 389.441 15.6096 389.444 15.6142 389.448C15.6188 389.453 15.6211 389.46 15.6211 389.47V389.53H15.6065V389.475C15.6065 389.469 15.606 389.465 15.6051 389.463C15.6041 389.46 15.6024 389.458 15.5999 389.456C15.5974 389.455 15.5945 389.454 15.5912 389.454C15.5851 389.454 15.58 389.456 15.576 389.46C15.572 389.464 15.57 389.471 15.57 389.479V389.53H15.5553V389.474C15.5553 389.467 15.5542 389.462 15.5518 389.459C15.5494 389.456 15.5455 389.454 15.54 389.454C15.5359 389.454 15.5321 389.455 15.5286 389.457C15.5251 389.459 15.5226 389.463 15.521 389.467C15.5194 389.471 15.5186 389.477 15.5186 389.485V389.53H15.504ZM15.637 389.504L15.6515 389.502C15.6523 389.507 15.6545 389.512 15.6582 389.515C15.662 389.518 15.6672 389.52 15.6738 389.52C15.6806 389.52 15.6856 389.518 15.6888 389.516C15.6921 389.513 15.6937 389.51 15.6937 389.506C15.6937 389.503 15.6923 389.5 15.6894 389.498C15.6874 389.497 15.6824 389.495 15.6744 389.493C15.6637 389.49 15.6562 389.488 15.652 389.486C15.6479 389.484 15.6448 389.481 15.6426 389.478C15.6405 389.474 15.6394 389.47 15.6394 389.466C15.6394 389.462 15.6403 389.459 15.642 389.456C15.6438 389.452 15.6462 389.45 15.6493 389.447C15.6515 389.446 15.6546 389.444 15.6585 389.443C15.6625 389.442 15.6667 389.441 15.6712 389.441C15.678 389.441 15.684 389.442 15.6891 389.444C15.6942 389.446 15.698 389.449 15.7005 389.452C15.7029 389.456 15.7046 389.46 15.7055 389.466L15.6912 389.468C15.6905 389.463 15.6886 389.46 15.6855 389.457C15.6824 389.455 15.678 389.453 15.6723 389.453C15.6656 389.453 15.6608 389.454 15.6579 389.457C15.655 389.459 15.6536 389.462 15.6536 389.465C15.6536 389.466 15.6542 389.468 15.6554 389.47C15.6566 389.471 15.6584 389.473 15.661 389.474C15.6624 389.474 15.6668 389.475 15.6739 389.477C15.6843 389.48 15.6915 389.482 15.6956 389.484C15.6997 389.486 15.7029 389.488 15.7053 389.492C15.7076 389.495 15.7088 389.499 15.7088 389.504C15.7088 389.509 15.7073 389.514 15.7044 389.518C15.7016 389.522 15.6975 389.526 15.6922 389.528C15.6868 389.53 15.6807 389.532 15.6739 389.532C15.6627 389.532 15.6541 389.529 15.6482 389.525C15.6423 389.52 15.6386 389.513 15.637 389.504ZM15.8045 389.517L15.8067 389.53C15.8025 389.53 15.7988 389.531 15.7956 389.531C15.7903 389.531 15.7861 389.53 15.7832 389.528C15.7803 389.527 15.7782 389.524 15.777 389.522C15.7758 389.519 15.7752 389.513 15.7752 389.504V389.455H15.7645V389.443H15.7752V389.422L15.7898 389.413V389.443H15.8045V389.455H15.7898V389.505C15.7898 389.509 15.7901 389.512 15.7905 389.513C15.7911 389.514 15.7919 389.515 15.7931 389.516C15.7943 389.517 15.7959 389.517 15.7981 389.517C15.7997 389.517 15.8019 389.517 15.8045 389.517ZM15.8189 389.53V389.41H15.8336V389.453C15.8404 389.445 15.8491 389.441 15.8595 389.441C15.8659 389.441 15.8714 389.443 15.8762 389.445C15.8809 389.448 15.8842 389.451 15.8862 389.456C15.8883 389.46 15.8893 389.466 15.8893 389.475V389.53H15.8747V389.475C15.8747 389.468 15.8731 389.462 15.8699 389.459C15.8667 389.456 15.8623 389.454 15.8565 389.454C15.8521 389.454 15.848 389.455 15.8442 389.457C15.8404 389.46 15.8377 389.463 15.836 389.466C15.8344 389.47 15.8336 389.476 15.8336 389.482V389.53H15.8189ZM15.9709 389.502L15.986 389.504C15.9836 389.513 15.9792 389.519 15.9728 389.524C15.9663 389.529 15.9581 389.532 15.948 389.532C15.9354 389.532 15.9253 389.528 15.9179 389.52C15.9105 389.512 15.9068 389.501 15.9068 389.487C15.9068 389.473 15.9106 389.461 15.9181 389.453C15.9256 389.445 15.9353 389.441 15.9472 389.441C15.9588 389.441 15.9682 389.445 15.9755 389.453C15.9828 389.461 15.9865 389.472 15.9865 389.486C15.9865 389.487 15.9865 389.488 15.9864 389.49H15.922C15.9225 389.5 15.9252 389.507 15.93 389.512C15.9349 389.517 15.9409 389.52 15.9481 389.52C15.9535 389.52 15.9581 389.518 15.9619 389.515C15.9656 389.513 15.9687 389.508 15.9709 389.502ZM15.9228 389.478H15.971C15.9704 389.471 15.9686 389.465 15.9655 389.462C15.9608 389.456 15.9548 389.453 15.9474 389.453C15.9406 389.453 15.935 389.456 15.9304 389.46C15.9258 389.465 15.9233 389.471 15.9228 389.478ZM16.0509 389.563V389.443H16.0642V389.454C16.0674 389.45 16.0709 389.447 16.0749 389.445C16.0789 389.442 16.0837 389.441 16.0893 389.441C16.0967 389.441 16.1032 389.443 16.1088 389.447C16.1145 389.451 16.1187 389.456 16.1216 389.463C16.1245 389.47 16.1259 389.478 16.1259 389.486C16.1259 389.495 16.1243 389.503 16.1211 389.51C16.118 389.517 16.1134 389.522 16.1073 389.526C16.1013 389.53 16.0949 389.532 16.0882 389.532C16.0834 389.532 16.079 389.531 16.0751 389.529C16.0712 389.526 16.068 389.524 16.0655 389.521V389.563H16.0509ZM16.0641 389.487C16.0641 389.498 16.0664 389.506 16.0709 389.512C16.0754 389.517 16.0809 389.52 16.0873 389.52C16.0938 389.52 16.0993 389.517 16.1039 389.511C16.1086 389.506 16.1109 389.497 16.1109 389.486C16.1109 389.475 16.1087 389.466 16.1041 389.461C16.0996 389.456 16.0942 389.453 16.0879 389.453C16.0817 389.453 16.0761 389.456 16.0713 389.462C16.0665 389.467 16.0641 389.476 16.0641 389.487ZM16.2001 389.519C16.1946 389.524 16.1894 389.527 16.1843 389.529C16.1794 389.531 16.174 389.532 16.1682 389.532C16.1587 389.532 16.1514 389.529 16.1463 389.525C16.1412 389.52 16.1387 389.514 16.1387 389.507C16.1387 389.503 16.1396 389.499 16.1415 389.495C16.1435 389.492 16.146 389.489 16.1491 389.487C16.1523 389.485 16.1558 389.483 16.1597 389.482C16.1626 389.481 16.1669 389.481 16.1727 389.48C16.1845 389.478 16.1932 389.477 16.1988 389.475C16.1989 389.473 16.1989 389.472 16.1989 389.471C16.1989 389.465 16.1975 389.461 16.1948 389.458C16.191 389.455 16.1855 389.453 16.1781 389.453C16.1712 389.453 16.1661 389.455 16.1628 389.457C16.1595 389.459 16.1571 389.464 16.1555 389.47L16.1412 389.468C16.1425 389.462 16.1447 389.457 16.1476 389.453C16.1506 389.449 16.1549 389.446 16.1606 389.444C16.1662 389.442 16.1728 389.441 16.1802 389.441C16.1876 389.441 16.1936 389.442 16.1982 389.444C16.2028 389.446 16.2062 389.448 16.2084 389.451C16.2105 389.453 16.212 389.456 16.2129 389.46C16.2134 389.463 16.2136 389.467 16.2136 389.474V389.493C16.2136 389.507 16.2139 389.516 16.2145 389.519C16.2152 389.523 16.2164 389.526 16.2183 389.53H16.203C16.2015 389.527 16.2005 389.523 16.2001 389.519ZM16.1988 389.486C16.1935 389.488 16.1855 389.49 16.1749 389.492C16.1689 389.493 16.1646 389.494 16.1621 389.495C16.1596 389.496 16.1577 389.497 16.1564 389.5C16.155 389.502 16.1543 389.504 16.1543 389.506C16.1543 389.51 16.1558 389.514 16.1587 389.516C16.1617 389.519 16.166 389.52 16.1717 389.52C16.1774 389.52 16.1824 389.519 16.1868 389.517C16.1912 389.514 16.1944 389.511 16.1965 389.506C16.198 389.503 16.1988 389.498 16.1988 389.492V389.486ZM16.2337 389.537L16.248 389.539C16.2486 389.543 16.2502 389.547 16.253 389.549C16.2566 389.551 16.2616 389.553 16.2678 389.553C16.2746 389.553 16.2799 389.551 16.2836 389.549C16.2872 389.546 16.2897 389.542 16.291 389.537C16.2918 389.534 16.2922 389.528 16.2921 389.518C16.2857 389.526 16.2777 389.53 16.2682 389.53C16.2563 389.53 16.2471 389.525 16.2406 389.517C16.2341 389.508 16.2308 389.498 16.2308 389.486C16.2308 389.478 16.2323 389.47 16.2353 389.463C16.2383 389.456 16.2426 389.451 16.2482 389.447C16.2539 389.443 16.2606 389.441 16.2683 389.441C16.2785 389.441 16.2869 389.445 16.2935 389.454V389.443H16.307V389.518C16.307 389.531 16.3056 389.541 16.3028 389.547C16.3001 389.552 16.2958 389.557 16.2898 389.56C16.2839 389.563 16.2766 389.565 16.2679 389.565C16.2576 389.565 16.2493 389.562 16.2429 389.558C16.2366 389.553 16.2335 389.546 16.2337 389.537ZM16.2459 389.485C16.2459 389.496 16.2481 389.505 16.2526 389.51C16.2571 389.515 16.2628 389.518 16.2696 389.518C16.2763 389.518 16.2819 389.515 16.2865 389.51C16.291 389.505 16.2933 389.496 16.2933 389.485C16.2933 389.475 16.291 389.467 16.2862 389.461C16.2816 389.456 16.2759 389.453 16.2693 389.453C16.2628 389.453 16.2573 389.456 16.2527 389.461C16.2482 389.467 16.2459 389.475 16.2459 389.485ZM16.3884 389.502L16.4035 389.504C16.4011 389.513 16.3967 389.519 16.3902 389.524C16.3838 389.529 16.3755 389.532 16.3655 389.532C16.3529 389.532 16.3428 389.528 16.3354 389.52C16.328 389.512 16.3243 389.501 16.3243 389.487C16.3243 389.473 16.3281 389.461 16.3356 389.453C16.343 389.445 16.3528 389.441 16.3647 389.441C16.3762 389.441 16.3857 389.445 16.393 389.453C16.4003 389.461 16.404 389.472 16.404 389.486C16.404 389.487 16.404 389.488 16.4039 389.49H16.3395C16.34 389.5 16.3427 389.507 16.3475 389.512C16.3523 389.517 16.3584 389.52 16.3656 389.52C16.371 389.52 16.3755 389.518 16.3793 389.515C16.3831 389.513 16.3861 389.508 16.3884 389.502ZM16.3403 389.478H16.3885C16.3879 389.471 16.386 389.465 16.383 389.462C16.3783 389.456 16.3723 389.453 16.3649 389.453C16.3581 389.453 16.3525 389.456 16.3478 389.46C16.3433 389.465 16.3408 389.471 16.3403 389.478ZM16.4677 389.563L16.4661 389.549C16.4693 389.55 16.4721 389.551 16.4745 389.551C16.4777 389.551 16.4803 389.55 16.4823 389.549C16.4842 389.548 16.4858 389.546 16.4871 389.544C16.488 389.543 16.4895 389.539 16.4916 389.533C16.4918 389.533 16.4923 389.531 16.4929 389.53L16.4601 389.443H16.4759L16.4938 389.493C16.4962 389.5 16.4983 389.506 16.5001 389.513C16.5018 389.507 16.5038 389.5 16.5061 389.494L16.5246 389.443H16.5393L16.5064 389.531C16.5028 389.541 16.5001 389.547 16.4982 389.551C16.4956 389.556 16.4926 389.559 16.4892 389.561C16.4858 389.564 16.4818 389.565 16.4772 389.565C16.4743 389.565 16.4712 389.564 16.4677 389.563ZM16.5463 389.486C16.5463 389.47 16.5507 389.459 16.5596 389.451C16.567 389.445 16.5761 389.441 16.5868 389.441C16.5987 389.441 16.6084 389.445 16.6159 389.453C16.6235 389.461 16.6272 389.472 16.6272 389.485C16.6272 389.496 16.6255 389.505 16.6222 389.512C16.6189 389.518 16.614 389.523 16.6076 389.526C16.6013 389.53 16.5943 389.532 16.5868 389.532C16.5747 389.532 16.5649 389.528 16.5574 389.52C16.55 389.512 16.5463 389.501 16.5463 389.486ZM16.5613 389.486C16.5613 389.498 16.5637 389.506 16.5686 389.511C16.5734 389.517 16.5795 389.52 16.5868 389.52C16.5941 389.52 16.6001 389.517 16.6049 389.511C16.6098 389.506 16.6122 389.497 16.6122 389.486C16.6122 389.475 16.6097 389.467 16.6048 389.462C16.6 389.456 16.594 389.453 16.5868 389.453C16.5795 389.453 16.5734 389.456 16.5686 389.462C16.5637 389.467 16.5613 389.475 16.5613 389.486ZM16.7011 389.53V389.517C16.6944 389.527 16.6853 389.532 16.6737 389.532C16.6686 389.532 16.6638 389.531 16.6594 389.529C16.655 389.527 16.6517 389.524 16.6495 389.521C16.6474 389.518 16.6459 389.515 16.6451 389.51C16.6445 389.508 16.6442 389.503 16.6442 389.497V389.443H16.6588V389.491C16.6588 389.499 16.6591 389.504 16.6597 389.507C16.6606 389.511 16.6626 389.514 16.6656 389.516C16.6685 389.518 16.6722 389.519 16.6766 389.519C16.681 389.519 16.6851 389.518 16.689 389.516C16.6928 389.513 16.6956 389.51 16.6971 389.506C16.6988 389.503 16.6996 389.497 16.6996 389.49V389.443H16.7142V389.53H16.7011ZM16.84 389.519C16.8346 389.524 16.8294 389.527 16.8243 389.529C16.8193 389.531 16.814 389.532 16.8082 389.532C16.7987 389.532 16.7914 389.529 16.7863 389.525C16.7812 389.52 16.7787 389.514 16.7787 389.507C16.7787 389.503 16.7796 389.499 16.7815 389.495C16.7835 389.492 16.786 389.489 16.7891 389.487C16.7922 389.485 16.7958 389.483 16.7997 389.482C16.8026 389.481 16.8069 389.481 16.8127 389.48C16.8245 389.478 16.8332 389.477 16.8388 389.475C16.8389 389.473 16.8389 389.472 16.8389 389.471C16.8389 389.465 16.8375 389.461 16.8348 389.458C16.831 389.455 16.8254 389.453 16.8181 389.453C16.8112 389.453 16.8061 389.455 16.8028 389.457C16.7995 389.459 16.7971 389.464 16.7955 389.47L16.7812 389.468C16.7825 389.462 16.7846 389.457 16.7876 389.453C16.7906 389.449 16.7949 389.446 16.8006 389.444C16.8062 389.442 16.8128 389.441 16.8202 389.441C16.8276 389.441 16.8336 389.442 16.8382 389.444C16.8428 389.446 16.8462 389.448 16.8483 389.451C16.8505 389.453 16.852 389.456 16.8529 389.46C16.8534 389.463 16.8536 389.467 16.8536 389.474V389.493C16.8536 389.507 16.8539 389.516 16.8545 389.519C16.8552 389.523 16.8564 389.526 16.8583 389.53H16.843C16.8415 389.527 16.8405 389.523 16.84 389.519ZM16.8388 389.486C16.8335 389.488 16.8255 389.49 16.8149 389.492C16.8089 389.493 16.8046 389.494 16.8021 389.495C16.7996 389.496 16.7977 389.497 16.7963 389.5C16.795 389.502 16.7943 389.504 16.7943 389.506C16.7943 389.51 16.7958 389.514 16.7987 389.516C16.8017 389.519 16.806 389.52 16.8117 389.52C16.8174 389.52 16.8224 389.519 16.8268 389.517C16.8312 389.514 16.8344 389.511 16.8365 389.506C16.838 389.503 16.8388 389.498 16.8388 389.492V389.486ZM16.8763 389.53V389.443H16.8894V389.456C16.8928 389.45 16.8959 389.446 16.8987 389.444C16.9016 389.442 16.9047 389.441 16.9082 389.441C16.9131 389.441 16.9181 389.443 16.9232 389.446L16.9182 389.46C16.9146 389.458 16.911 389.456 16.9074 389.456C16.9042 389.456 16.9013 389.457 16.8988 389.459C16.8962 389.461 16.8944 389.464 16.8933 389.467C16.8917 389.473 16.8909 389.478 16.8909 389.484V389.53H16.8763ZM16.9911 389.502L17.0062 389.504C17.0038 389.513 16.9994 389.519 16.993 389.524C16.9865 389.529 16.9783 389.532 16.9682 389.532C16.9556 389.532 16.9455 389.528 16.9381 389.52C16.9307 389.512 16.927 389.501 16.927 389.487C16.927 389.473 16.9308 389.461 16.9383 389.453C16.9458 389.445 16.9555 389.441 16.9674 389.441C16.979 389.441 16.9884 389.445 16.9957 389.453C17.003 389.461 17.0067 389.472 17.0067 389.486C17.0067 389.487 17.0067 389.488 17.0066 389.49H16.9422C16.9427 389.5 16.9454 389.507 16.9502 389.512C16.9551 389.517 16.9611 389.52 16.9683 389.52C16.9737 389.52 16.9783 389.518 16.9821 389.515C16.9859 389.513 16.9889 389.508 16.9911 389.502ZM16.943 389.478H16.9912C16.9906 389.471 16.9888 389.465 16.9857 389.462C16.981 389.456 16.975 389.453 16.9676 389.453C16.9608 389.453 16.9552 389.456 16.9506 389.46C16.946 389.465 16.9435 389.471 16.943 389.478ZM17.0708 389.53V389.41H17.0854V389.53H17.0708ZM17.1027 389.486C17.1027 389.47 17.1072 389.459 17.1161 389.451C17.1235 389.445 17.1326 389.441 17.1433 389.441C17.1552 389.441 17.1649 389.445 17.1724 389.453C17.1799 389.461 17.1837 389.472 17.1837 389.485C17.1837 389.496 17.182 389.505 17.1787 389.512C17.1754 389.518 17.1705 389.523 17.1641 389.526C17.1578 389.53 17.1508 389.532 17.1433 389.532C17.1312 389.532 17.1214 389.528 17.1139 389.52C17.1065 389.512 17.1027 389.501 17.1027 389.486ZM17.1178 389.486C17.1178 389.498 17.1202 389.506 17.125 389.511C17.1299 389.517 17.1359 389.52 17.1433 389.52C17.1505 389.52 17.1566 389.517 17.1614 389.511C17.1662 389.506 17.1687 389.497 17.1687 389.486C17.1687 389.475 17.1662 389.467 17.1613 389.462C17.1565 389.456 17.1505 389.453 17.1433 389.453C17.1359 389.453 17.1299 389.456 17.125 389.462C17.1202 389.467 17.1178 389.475 17.1178 389.486ZM17.1955 389.486C17.1955 389.47 17.2 389.459 17.2089 389.451C17.2163 389.445 17.2254 389.441 17.236 389.441C17.2479 389.441 17.2576 389.445 17.2652 389.453C17.2727 389.461 17.2765 389.472 17.2765 389.485C17.2765 389.496 17.2748 389.505 17.2714 389.512C17.2681 389.518 17.2633 389.523 17.2569 389.526C17.2505 389.53 17.2436 389.532 17.236 389.532C17.2239 389.532 17.2142 389.528 17.2067 389.52C17.1992 389.512 17.1955 389.501 17.1955 389.486ZM17.2106 389.486C17.2106 389.498 17.213 389.506 17.2178 389.511C17.2226 389.517 17.2287 389.52 17.236 389.52C17.2433 389.52 17.2494 389.517 17.2542 389.511C17.259 389.506 17.2614 389.497 17.2614 389.486C17.2614 389.475 17.259 389.467 17.2541 389.462C17.2493 389.456 17.2433 389.453 17.236 389.453C17.2287 389.453 17.2226 389.456 17.2178 389.462C17.213 389.467 17.2106 389.475 17.2106 389.486ZM17.2938 389.53V389.41H17.3085V389.478L17.3431 389.443H17.3621L17.3291 389.475L17.3654 389.53H17.3474L17.3188 389.486L17.3085 389.495V389.53H17.2938ZM17.3772 389.427V389.41H17.3918V389.427H17.3772ZM17.3772 389.53V389.443H17.3918V389.53H17.3772ZM17.4142 389.53V389.443H17.4274V389.456C17.4337 389.446 17.4429 389.441 17.4549 389.441C17.4601 389.441 17.4649 389.442 17.4692 389.444C17.4736 389.446 17.4769 389.448 17.4791 389.451C17.4812 389.455 17.4827 389.458 17.4836 389.462C17.4842 389.465 17.4844 389.47 17.4844 389.477V389.53H17.4698V389.477C17.4698 389.471 17.4692 389.467 17.4681 389.464C17.4669 389.461 17.4649 389.458 17.462 389.457C17.4591 389.455 17.4557 389.454 17.4518 389.454C17.4455 389.454 17.4402 389.456 17.4356 389.46C17.4311 389.464 17.4288 389.471 17.4288 389.482V389.53H17.4142ZM17.5043 389.537L17.5185 389.539C17.5191 389.543 17.5208 389.547 17.5235 389.549C17.5271 389.551 17.5321 389.553 17.5384 389.553C17.5452 389.553 17.5504 389.551 17.5541 389.549C17.5578 389.546 17.5603 389.542 17.5616 389.537C17.5623 389.534 17.5627 389.528 17.5626 389.518C17.5562 389.526 17.5483 389.53 17.5387 389.53C17.5268 389.53 17.5176 389.525 17.5111 389.517C17.5046 389.508 17.5014 389.498 17.5014 389.486C17.5014 389.478 17.5028 389.47 17.5058 389.463C17.5088 389.456 17.5131 389.451 17.5188 389.447C17.5245 389.443 17.5311 389.441 17.5388 389.441C17.549 389.441 17.5574 389.445 17.564 389.454V389.443H17.5775V389.518C17.5775 389.531 17.5761 389.541 17.5734 389.547C17.5707 389.552 17.5663 389.557 17.5604 389.56C17.5544 389.563 17.5471 389.565 17.5385 389.565C17.5282 389.565 17.5198 389.562 17.5135 389.558C17.5071 389.553 17.5041 389.546 17.5043 389.537ZM17.5164 389.485C17.5164 389.496 17.5187 389.505 17.5232 389.51C17.5277 389.515 17.5333 389.518 17.5401 389.518C17.5468 389.518 17.5525 389.515 17.557 389.51C17.5616 389.505 17.5639 389.496 17.5639 389.485C17.5639 389.475 17.5615 389.467 17.5568 389.461C17.5521 389.456 17.5465 389.453 17.5398 389.453C17.5333 389.453 17.5278 389.456 17.5232 389.461C17.5187 389.467 17.5164 389.475 17.5164 389.485ZM17.6496 389.53V389.455H17.6367V389.443H17.6496V389.434C17.6496 389.428 17.6501 389.424 17.6512 389.421C17.6526 389.417 17.6551 389.414 17.6586 389.412C17.6622 389.41 17.6672 389.408 17.6736 389.408C17.6777 389.408 17.6822 389.409 17.6872 389.41L17.685 389.423C17.682 389.422 17.6791 389.422 17.6764 389.422C17.672 389.422 17.6688 389.423 17.667 389.425C17.6651 389.427 17.6642 389.43 17.6642 389.435V389.443H17.681V389.455H17.6642V389.53H17.6496ZM17.6871 389.486C17.6871 389.47 17.6915 389.459 17.7004 389.451C17.7078 389.445 17.7169 389.441 17.7276 389.441C17.7395 389.441 17.7492 389.445 17.7567 389.453C17.7643 389.461 17.768 389.472 17.768 389.485C17.768 389.496 17.7664 389.505 17.763 389.512C17.7597 389.518 17.7548 389.523 17.7484 389.526C17.7421 389.53 17.7351 389.532 17.7276 389.532C17.7155 389.532 17.7057 389.528 17.6982 389.52C17.6908 389.512 17.6871 389.501 17.6871 389.486ZM17.7021 389.486C17.7021 389.498 17.7045 389.506 17.7094 389.511C17.7142 389.517 17.7203 389.52 17.7276 389.52C17.7349 389.52 17.7409 389.517 17.7457 389.511C17.7506 389.506 17.753 389.497 17.753 389.486C17.753 389.475 17.7505 389.467 17.7457 389.462C17.7408 389.456 17.7348 389.453 17.7276 389.453C17.7203 389.453 17.7142 389.456 17.7094 389.462C17.7045 389.467 17.7021 389.475 17.7021 389.486ZM17.7851 389.53V389.443H17.7983V389.456C17.8017 389.45 17.8048 389.446 17.8076 389.444C17.8105 389.442 17.8136 389.441 17.817 389.441C17.822 389.441 17.827 389.443 17.8321 389.446L17.827 389.46C17.8235 389.458 17.8199 389.456 17.8163 389.456C17.8131 389.456 17.8102 389.457 17.8077 389.459C17.8051 389.461 17.8033 389.464 17.8022 389.467C17.8006 389.473 17.7998 389.478 17.7998 389.484V389.53H17.7851ZM17.9433 389.53V389.519C17.9378 389.527 17.9297 389.532 17.9191 389.532C17.9122 389.532 17.9058 389.53 17.9 389.526C17.8943 389.522 17.8898 389.517 17.8866 389.51C17.8835 389.503 17.8819 389.495 17.8819 389.487C17.8819 389.478 17.8833 389.47 17.8862 389.463C17.8891 389.456 17.8934 389.451 17.8991 389.447C17.9049 389.443 17.9113 389.441 17.9184 389.441C17.9236 389.441 17.9283 389.442 17.9323 389.445C17.9364 389.447 17.9397 389.45 17.9423 389.453V389.41H17.9568V389.53H17.9433ZM17.8969 389.487C17.8969 389.498 17.8993 389.506 17.9039 389.511C17.9086 389.517 17.9141 389.52 17.9205 389.52C17.9269 389.52 17.9323 389.517 17.9367 389.512C17.9412 389.507 17.9435 389.499 17.9435 389.488C17.9435 389.476 17.9412 389.467 17.9367 389.462C17.9321 389.456 17.9265 389.453 17.9198 389.453C17.9133 389.453 17.9079 389.456 17.9035 389.461C17.8991 389.467 17.8969 389.475 17.8969 389.487ZM17.9745 389.486C17.9745 389.47 17.979 389.459 17.9879 389.451C17.9953 389.445 18.0043 389.441 18.015 389.441C18.0269 389.441 18.0366 389.445 18.0442 389.453C18.0517 389.461 18.0555 389.472 18.0555 389.485C18.0555 389.496 18.0538 389.505 18.0504 389.512C18.0471 389.518 18.0423 389.523 18.0359 389.526C18.0295 389.53 18.0226 389.532 18.015 389.532C18.0029 389.532 17.9931 389.528 17.9857 389.52C17.9782 389.512 17.9745 389.501 17.9745 389.486ZM17.9896 389.486C17.9896 389.498 17.992 389.506 17.9968 389.511C18.0016 389.517 18.0077 389.52 18.015 389.52C18.0223 389.52 18.0284 389.517 18.0332 389.511C18.038 389.506 18.0404 389.497 18.0404 389.486C18.0404 389.475 18.038 389.467 18.0331 389.462C18.0283 389.456 18.0222 389.453 18.015 389.453C18.0077 389.453 18.0016 389.456 17.9968 389.462C17.992 389.467 17.9896 389.475 17.9896 389.486ZM18.1319 389.502L18.147 389.504C18.1446 389.513 18.1402 389.519 18.1338 389.524C18.1273 389.529 18.1191 389.532 18.109 389.532C18.0964 389.532 18.0864 389.528 18.0789 389.52C18.0715 389.512 18.0678 389.501 18.0678 389.487C18.0678 389.473 18.0716 389.461 18.0791 389.453C18.0866 389.445 18.0963 389.441 18.1082 389.441C18.1198 389.441 18.1292 389.445 18.1365 389.453C18.1439 389.461 18.1475 389.472 18.1475 389.486C18.1475 389.487 18.1475 389.488 18.1474 389.49H18.083C18.0835 389.5 18.0862 389.507 18.091 389.512C18.0959 389.517 18.1019 389.52 18.1091 389.52C18.1145 389.52 18.1191 389.518 18.1229 389.515C18.1267 389.513 18.1297 389.508 18.1319 389.502ZM18.0838 389.478H18.1321C18.1314 389.471 18.1296 389.465 18.1265 389.462C18.1219 389.456 18.1158 389.453 18.1084 389.453C18.1017 389.453 18.096 389.456 18.0914 389.46C18.0868 389.465 18.0843 389.471 18.0838 389.478ZM18.1596 389.504L18.1741 389.502C18.1749 389.507 18.1772 389.512 18.1809 389.515C18.1846 389.518 18.1898 389.52 18.1965 389.52C18.2032 389.52 18.2082 389.518 18.2115 389.516C18.2147 389.513 18.2164 389.51 18.2164 389.506C18.2164 389.503 18.2149 389.5 18.2121 389.498C18.2101 389.497 18.2051 389.495 18.1971 389.493C18.1863 389.49 18.1789 389.488 18.1747 389.486C18.1706 389.484 18.1674 389.481 18.1653 389.478C18.1631 389.474 18.1621 389.47 18.1621 389.466C18.1621 389.462 18.163 389.459 18.1647 389.456C18.1665 389.452 18.1689 389.45 18.1719 389.447C18.1742 389.446 18.1773 389.444 18.1812 389.443C18.1852 389.442 18.1894 389.441 18.1939 389.441C18.2007 389.441 18.2066 389.442 18.2117 389.444C18.2169 389.446 18.2207 389.449 18.2231 389.452C18.2256 389.456 18.2272 389.46 18.2282 389.466L18.2138 389.468C18.2132 389.463 18.2113 389.46 18.2082 389.457C18.2051 389.455 18.2007 389.453 18.195 389.453C18.1882 389.453 18.1834 389.454 18.1806 389.457C18.1777 389.459 18.1763 389.462 18.1763 389.465C18.1763 389.466 18.1768 389.468 18.178 389.47C18.1792 389.471 18.1811 389.473 18.1837 389.474C18.1851 389.474 18.1894 389.475 18.1966 389.477C18.207 389.48 18.2142 389.482 18.2182 389.484C18.2224 389.486 18.2256 389.488 18.2279 389.492C18.2303 389.495 18.2314 389.499 18.2314 389.504C18.2314 389.509 18.23 389.514 18.2271 389.518C18.2243 389.522 18.2202 389.526 18.2148 389.528C18.2095 389.53 18.2034 389.532 18.1966 389.532C18.1854 389.532 18.1768 389.529 18.1709 389.525C18.165 389.52 18.1613 389.513 18.1596 389.504ZM18.2952 389.53V389.443H18.3084V389.456C18.3148 389.446 18.3239 389.441 18.3359 389.441C18.3411 389.441 18.3459 389.442 18.3502 389.444C18.3546 389.446 18.3579 389.448 18.3601 389.451C18.3623 389.455 18.3638 389.458 18.3646 389.462C18.3652 389.465 18.3655 389.47 18.3655 389.477V389.53H18.3508V389.477C18.3508 389.471 18.3502 389.467 18.3491 389.464C18.348 389.461 18.3459 389.458 18.343 389.457C18.3401 389.455 18.3367 389.454 18.3328 389.454C18.3266 389.454 18.3212 389.456 18.3166 389.46C18.3121 389.464 18.3099 389.471 18.3099 389.482V389.53H18.2952ZM18.3826 389.486C18.3826 389.47 18.387 389.459 18.3959 389.451C18.4033 389.445 18.4124 389.441 18.4231 389.441C18.435 389.441 18.4447 389.445 18.4522 389.453C18.4598 389.461 18.4635 389.472 18.4635 389.485C18.4635 389.496 18.4618 389.505 18.4585 389.512C18.4552 389.518 18.4503 389.523 18.4439 389.526C18.4376 389.53 18.4306 389.532 18.4231 389.532C18.411 389.532 18.4012 389.528 18.3937 389.52C18.3863 389.512 18.3826 389.501 18.3826 389.486ZM18.3976 389.486C18.3976 389.498 18.4 389.506 18.4049 389.511C18.4097 389.517 18.4158 389.52 18.4231 389.52C18.4304 389.52 18.4364 389.517 18.4412 389.511C18.4461 389.506 18.4485 389.497 18.4485 389.486C18.4485 389.475 18.446 389.467 18.4411 389.462C18.4363 389.456 18.4303 389.453 18.4231 389.453C18.4158 389.453 18.4097 389.456 18.4049 389.462C18.4 389.467 18.3976 389.475 18.3976 389.486ZM18.5128 389.517L18.5149 389.53C18.5108 389.53 18.5071 389.531 18.5038 389.531C18.4985 389.531 18.4944 389.53 18.4914 389.528C18.4885 389.527 18.4865 389.524 18.4853 389.522C18.4841 389.519 18.4835 389.513 18.4835 389.504V389.455H18.4727V389.443H18.4835V389.422L18.498 389.413V389.443H18.5128V389.455H18.498V389.505C18.498 389.509 18.4983 389.512 18.4988 389.513C18.4993 389.514 18.5001 389.515 18.5013 389.516C18.5025 389.517 18.5042 389.517 18.5063 389.517C18.508 389.517 18.5101 389.517 18.5128 389.517ZM18.6327 389.502L18.6479 389.504C18.6455 389.513 18.641 389.519 18.6346 389.524C18.6281 389.529 18.6199 389.532 18.6099 389.532C18.5972 389.532 18.5872 389.528 18.5797 389.52C18.5724 389.512 18.5687 389.501 18.5687 389.487C18.5687 389.473 18.5724 389.461 18.5799 389.453C18.5874 389.445 18.5971 389.441 18.609 389.441C18.6206 389.441 18.63 389.445 18.6374 389.453C18.6447 389.461 18.6483 389.472 18.6483 389.486C18.6483 389.487 18.6483 389.488 18.6483 389.49H18.5838C18.5844 389.5 18.587 389.507 18.5919 389.512C18.5967 389.517 18.6027 389.52 18.6099 389.52C18.6153 389.52 18.6199 389.518 18.6237 389.515C18.6275 389.513 18.6305 389.508 18.6327 389.502ZM18.5846 389.478H18.6329C18.6322 389.471 18.6304 389.465 18.6273 389.462C18.6227 389.456 18.6166 389.453 18.6092 389.453C18.6025 389.453 18.5968 389.456 18.5922 389.46C18.5876 389.465 18.5851 389.471 18.5846 389.478ZM18.6566 389.53L18.6881 389.485L18.6589 389.443H18.6772L18.6905 389.464C18.693 389.467 18.695 389.471 18.6965 389.473C18.6989 389.47 18.7011 389.466 18.7031 389.464L18.7177 389.443H18.7352L18.7053 389.484L18.7375 389.53H18.7195L18.7017 389.503L18.697 389.496L18.6743 389.53H18.6566ZM18.7497 389.427V389.41H18.7644V389.427H18.7497ZM18.7497 389.53V389.443H18.7644V389.53H18.7497ZM18.8188 389.517L18.8209 389.53C18.8168 389.53 18.8131 389.531 18.8098 389.531C18.8045 389.531 18.8004 389.53 18.7974 389.528C18.7945 389.527 18.7924 389.524 18.7913 389.522C18.7901 389.519 18.7895 389.513 18.7895 389.504V389.455H18.7787V389.443H18.7895V389.422L18.804 389.413V389.443H18.8188V389.455H18.804V389.505C18.804 389.509 18.8043 389.512 18.8048 389.513C18.8053 389.514 18.8061 389.515 18.8073 389.516C18.8085 389.517 18.8102 389.517 18.8123 389.517C18.814 389.517 18.8161 389.517 18.8188 389.517ZM18.8373 389.53V389.513H18.854V389.53H18.8373Z" fill="#363636"/>
<path d="M15.0924 418.28L15.1073 418.279C15.108 418.285 15.1097 418.29 15.1122 418.294C15.1148 418.298 15.1188 418.301 15.1243 418.303C15.1297 418.305 15.1358 418.307 15.1426 418.307C15.1486 418.307 15.1539 418.306 15.1585 418.304C15.1631 418.302 15.1666 418.3 15.1688 418.297C15.1711 418.293 15.1722 418.29 15.1722 418.286C15.1722 418.283 15.1711 418.279 15.1689 418.277C15.1668 418.274 15.1632 418.271 15.1582 418.269C15.155 418.268 15.1479 418.266 15.137 418.264C15.126 418.261 15.1183 418.258 15.1139 418.256C15.1082 418.253 15.104 418.249 15.1012 418.245C15.0984 418.241 15.097 418.236 15.097 418.23C15.097 418.224 15.0987 418.219 15.1021 418.213C15.1056 418.208 15.1105 418.204 15.1171 418.201C15.1237 418.199 15.131 418.197 15.139 418.197C15.1478 418.197 15.1556 418.199 15.1624 418.202C15.1691 418.204 15.1743 418.209 15.178 418.214C15.1816 418.22 15.1836 418.226 15.1838 418.233L15.1687 418.234C15.1679 418.227 15.1651 418.221 15.1604 418.217C15.1557 418.213 15.1488 418.211 15.1396 418.211C15.1301 418.211 15.1231 418.213 15.1187 418.217C15.1144 418.22 15.1122 418.224 15.1122 418.229C15.1122 418.233 15.1138 418.237 15.1169 418.24C15.1199 418.242 15.1278 418.245 15.1406 418.248C15.1535 418.251 15.1623 418.254 15.1671 418.256C15.174 418.259 15.1791 418.263 15.1825 418.268C15.1858 418.273 15.1874 418.279 15.1874 418.285C15.1874 418.291 15.1856 418.297 15.182 418.303C15.1783 418.309 15.1731 418.313 15.1663 418.316C15.1595 418.319 15.1518 418.321 15.1433 418.321C15.1325 418.321 15.1235 418.319 15.1161 418.316C15.1089 418.313 15.1031 418.308 15.099 418.302C15.0948 418.295 15.0927 418.288 15.0924 418.28ZM15.2663 418.291L15.2814 418.293C15.279 418.302 15.2746 418.308 15.2682 418.313C15.2617 418.318 15.2534 418.321 15.2434 418.321C15.2308 418.321 15.2207 418.317 15.2133 418.309C15.2059 418.301 15.2022 418.29 15.2022 418.276C15.2022 418.262 15.206 418.25 15.2135 418.242C15.2209 418.234 15.2307 418.23 15.2426 418.23C15.2542 418.23 15.2636 418.234 15.2709 418.242C15.2782 418.25 15.2819 418.261 15.2819 418.275C15.2819 418.276 15.2819 418.277 15.2818 418.279H15.2174C15.2179 418.289 15.2206 418.296 15.2254 418.301C15.2303 418.306 15.2363 418.309 15.2435 418.309C15.2489 418.309 15.2534 418.307 15.2572 418.304C15.261 418.302 15.2641 418.297 15.2663 418.291ZM15.2182 418.267H15.2664C15.2658 418.26 15.2639 418.254 15.2609 418.251C15.2562 418.245 15.2502 418.242 15.2428 418.242C15.236 418.242 15.2304 418.245 15.2258 418.249C15.2212 418.254 15.2187 418.26 15.2182 418.267ZM15.3563 418.308C15.3509 418.313 15.3456 418.316 15.3406 418.318C15.3356 418.32 15.3302 418.321 15.3245 418.321C15.315 418.321 15.3077 418.318 15.3026 418.314C15.2975 418.309 15.2949 418.303 15.2949 418.296C15.2949 418.292 15.2959 418.288 15.2978 418.284C15.2997 418.281 15.3023 418.278 15.3053 418.276C15.3085 418.274 15.312 418.272 15.3159 418.271C15.3188 418.27 15.3231 418.27 15.3289 418.269C15.3408 418.267 15.3495 418.266 15.3551 418.264C15.3551 418.262 15.3551 418.261 15.3551 418.26C15.3551 418.254 15.3538 418.25 15.351 418.247C15.3473 418.244 15.3417 418.242 15.3343 418.242C15.3274 418.242 15.3223 418.244 15.319 418.246C15.3158 418.248 15.3133 418.253 15.3118 418.259L15.2974 418.257C15.2988 418.251 15.3009 418.246 15.3039 418.242C15.3069 418.238 15.3112 418.235 15.3168 418.233C15.3225 418.231 15.329 418.23 15.3364 418.23C15.3438 418.23 15.3498 418.231 15.3544 418.233C15.359 418.235 15.3624 418.237 15.3646 418.239C15.3668 418.242 15.3683 418.245 15.3691 418.249C15.3696 418.252 15.3699 418.256 15.3699 418.263V418.282C15.3699 418.296 15.3702 418.305 15.3708 418.308C15.3714 418.312 15.3727 418.315 15.3745 418.319H15.3592C15.3577 418.316 15.3567 418.312 15.3563 418.308ZM15.3551 418.275C15.3498 418.277 15.3418 418.279 15.3311 418.281C15.3251 418.282 15.3209 418.283 15.3184 418.284C15.3159 418.285 15.3139 418.286 15.3126 418.289C15.3112 418.291 15.3106 418.293 15.3106 418.295C15.3106 418.299 15.312 418.303 15.3149 418.305C15.3179 418.308 15.3223 418.309 15.328 418.309C15.3336 418.309 15.3386 418.308 15.343 418.305C15.3474 418.303 15.3506 418.3 15.3527 418.295C15.3543 418.292 15.3551 418.287 15.3551 418.281V418.275ZM15.3925 418.319V418.232H15.4057V418.245C15.4091 418.239 15.4121 418.235 15.415 418.233C15.4178 418.231 15.421 418.23 15.4244 418.23C15.4293 418.23 15.4344 418.232 15.4395 418.235L15.4344 418.249C15.4308 418.246 15.4273 418.245 15.4237 418.245C15.4205 418.245 15.4176 418.246 15.415 418.248C15.4125 418.25 15.4107 418.253 15.4096 418.256C15.408 418.262 15.4072 418.267 15.4072 418.273V418.319H15.3925ZM15.5046 418.287L15.519 418.289C15.5174 418.299 15.5134 418.307 15.5068 418.312C15.5004 418.318 15.4924 418.321 15.483 418.321C15.4712 418.321 15.4617 418.317 15.4544 418.309C15.4473 418.301 15.4437 418.29 15.4437 418.276C15.4437 418.266 15.4452 418.258 15.4483 418.251C15.4514 418.244 15.4561 418.239 15.4624 418.236C15.4688 418.232 15.4756 418.23 15.4831 418.23C15.4925 418.23 15.5001 418.233 15.5061 418.237C15.5121 418.242 15.5159 418.249 15.5176 418.258L15.5033 418.26C15.502 418.254 15.4996 418.25 15.4961 418.247C15.4927 418.244 15.4885 418.242 15.4837 418.242C15.4763 418.242 15.4703 418.245 15.4657 418.25C15.4611 418.256 15.4587 418.264 15.4587 418.275C15.4587 418.287 15.461 418.295 15.4654 418.301C15.4699 418.306 15.4757 418.309 15.4828 418.309C15.4886 418.309 15.4934 418.307 15.4972 418.303C15.5011 418.3 15.5035 418.294 15.5046 418.287ZM15.5315 418.319V418.199H15.5462V418.242C15.553 418.234 15.5616 418.23 15.572 418.23C15.5784 418.23 15.584 418.232 15.5887 418.234C15.5934 418.237 15.5968 418.24 15.5988 418.245C15.6009 418.249 15.6019 418.255 15.6019 418.264V418.319H15.5872V418.264C15.5872 418.257 15.5856 418.251 15.5824 418.248C15.5793 418.245 15.5748 418.243 15.569 418.243C15.5647 418.243 15.5606 418.244 15.5567 418.246C15.5529 418.249 15.5502 418.252 15.5486 418.255C15.547 418.259 15.5462 418.265 15.5462 418.271V418.319H15.5315ZM15.6742 418.319V418.244H15.6612V418.232H15.6742V418.223C15.6742 418.217 15.6747 418.213 15.6757 418.21C15.6771 418.206 15.6796 418.203 15.6831 418.201C15.6867 418.199 15.6917 418.197 15.6981 418.197C15.7022 418.197 15.7068 418.198 15.7118 418.199L15.7096 418.212C15.7065 418.211 15.7037 418.211 15.7009 418.211C15.6965 418.211 15.6933 418.212 15.6915 418.214C15.6897 418.215 15.6887 418.219 15.6887 418.224V418.232H15.7056V418.244H15.6887V418.319H15.6742ZM15.7116 418.275C15.7116 418.259 15.716 418.248 15.7249 418.24C15.7324 418.233 15.7414 418.23 15.7521 418.23C15.764 418.23 15.7737 418.234 15.7813 418.242C15.7888 418.25 15.7926 418.261 15.7926 418.274C15.7926 418.285 15.7909 418.294 15.7875 418.301C15.7842 418.307 15.7794 418.312 15.773 418.315C15.7666 418.319 15.7597 418.321 15.7521 418.321C15.74 418.321 15.7302 418.317 15.7228 418.309C15.7153 418.301 15.7116 418.29 15.7116 418.275ZM15.7267 418.275C15.7267 418.287 15.7291 418.295 15.7339 418.3C15.7387 418.306 15.7448 418.309 15.7521 418.309C15.7594 418.309 15.7654 418.306 15.7703 418.3C15.7751 418.295 15.7775 418.286 15.7775 418.275C15.7775 418.264 15.7751 418.256 15.7702 418.251C15.7654 418.245 15.7593 418.242 15.7521 418.242C15.7448 418.242 15.7387 418.245 15.7339 418.251C15.7291 418.256 15.7267 418.264 15.7267 418.275ZM15.8097 418.319V418.232H15.8229V418.245C15.8262 418.239 15.8293 418.235 15.8321 418.233C15.835 418.231 15.8381 418.23 15.8416 418.23C15.8465 418.23 15.8515 418.232 15.8566 418.235L15.8516 418.249C15.848 418.246 15.8444 418.245 15.8408 418.245C15.8376 418.245 15.8348 418.246 15.8322 418.248C15.8297 418.25 15.8278 418.253 15.8268 418.256C15.8251 418.262 15.8243 418.267 15.8243 418.273V418.319H15.8097ZM15.9116 418.319V418.232H15.9247V418.245C15.9281 418.239 15.9312 418.235 15.934 418.233C15.9369 418.231 15.94 418.23 15.9435 418.23C15.9484 418.23 15.9534 418.232 15.9585 418.235L15.9535 418.249C15.9499 418.246 15.9463 418.245 15.9427 418.245C15.9395 418.245 15.9366 418.246 15.9341 418.248C15.9315 418.25 15.9297 418.253 15.9286 418.256C15.927 418.262 15.9262 418.267 15.9262 418.273V418.319H15.9116ZM16.0264 418.291L16.0415 418.293C16.0391 418.302 16.0347 418.308 16.0283 418.313C16.0218 418.318 16.0136 418.321 16.0035 418.321C15.9909 418.321 15.9808 418.317 15.9734 418.309C15.966 418.301 15.9623 418.29 15.9623 418.276C15.9623 418.262 15.9661 418.25 15.9736 418.242C15.9811 418.234 15.9908 418.23 16.0027 418.23C16.0143 418.23 16.0237 418.234 16.031 418.242C16.0383 418.25 16.042 418.261 16.042 418.275C16.042 418.276 16.042 418.277 16.0419 418.279H15.9775C15.978 418.289 15.9807 418.296 15.9855 418.301C15.9904 418.306 15.9964 418.309 16.0036 418.309C16.009 418.309 16.0136 418.307 16.0174 418.304C16.0212 418.302 16.0242 418.297 16.0264 418.291ZM15.9783 418.267H16.0265C16.0259 418.26 16.0241 418.254 16.021 418.251C16.0163 418.245 16.0103 418.242 16.0029 418.242C15.9961 418.242 15.9905 418.245 15.9859 418.249C15.9813 418.254 15.9788 418.26 15.9783 418.267ZM16.0597 418.319V418.199H16.0743V418.319H16.0597ZM16.1535 418.308C16.1481 418.313 16.1428 418.316 16.1378 418.318C16.1328 418.32 16.1274 418.321 16.1217 418.321C16.1122 418.321 16.1049 418.318 16.0998 418.314C16.0947 418.309 16.0921 418.303 16.0921 418.296C16.0921 418.292 16.0931 418.288 16.095 418.284C16.0969 418.281 16.0995 418.278 16.1026 418.276C16.1057 418.274 16.1092 418.272 16.1131 418.271C16.116 418.27 16.1204 418.27 16.1262 418.269C16.138 418.267 16.1467 418.266 16.1523 418.264C16.1523 418.262 16.1524 418.261 16.1524 418.26C16.1524 418.254 16.151 418.25 16.1482 418.247C16.1445 418.244 16.1389 418.242 16.1315 418.242C16.1246 418.242 16.1195 418.244 16.1162 418.246C16.113 418.248 16.1106 418.253 16.109 418.259L16.0947 418.257C16.096 418.251 16.0981 418.246 16.1011 418.242C16.1041 418.238 16.1084 418.235 16.114 418.233C16.1197 418.231 16.1262 418.23 16.1336 418.23C16.141 418.23 16.147 418.231 16.1516 418.233C16.1562 418.235 16.1596 418.237 16.1618 418.239C16.164 418.242 16.1655 418.245 16.1664 418.249C16.1669 418.252 16.1671 418.256 16.1671 418.263V418.282C16.1671 418.296 16.1674 418.305 16.168 418.308C16.1686 418.312 16.1699 418.315 16.1717 418.319H16.1564C16.1549 418.316 16.1539 418.312 16.1535 418.308ZM16.1523 418.275C16.147 418.277 16.139 418.279 16.1284 418.281C16.1223 418.282 16.1181 418.283 16.1156 418.284C16.1131 418.285 16.1112 418.286 16.1098 418.289C16.1084 418.291 16.1078 418.293 16.1078 418.295C16.1078 418.299 16.1092 418.303 16.1122 418.305C16.1151 418.308 16.1195 418.309 16.1252 418.309C16.1308 418.309 16.1358 418.308 16.1402 418.305C16.1446 418.303 16.1479 418.3 16.1499 418.295C16.1515 418.292 16.1523 418.287 16.1523 418.281V418.275ZM16.2219 418.306L16.224 418.319C16.2199 418.319 16.2162 418.32 16.2129 418.32C16.2076 418.32 16.2035 418.319 16.2005 418.317C16.1976 418.316 16.1956 418.313 16.1944 418.311C16.1932 418.308 16.1926 418.302 16.1926 418.293V418.244H16.1818V418.232H16.1926V418.211L16.2071 418.202V418.232H16.2219V418.244H16.2071V418.294C16.2071 418.298 16.2074 418.301 16.2079 418.302C16.2084 418.303 16.2093 418.304 16.2104 418.305C16.2116 418.306 16.2133 418.306 16.2154 418.306C16.2171 418.306 16.2192 418.306 16.2219 418.306ZM16.2954 418.291L16.3106 418.293C16.3082 418.302 16.3038 418.308 16.2973 418.313C16.2908 418.318 16.2826 418.321 16.2726 418.321C16.2599 418.321 16.2499 418.317 16.2425 418.309C16.2351 418.301 16.2314 418.29 16.2314 418.276C16.2314 418.262 16.2351 418.25 16.2426 418.242C16.2501 418.234 16.2598 418.23 16.2718 418.23C16.2833 418.23 16.2927 418.234 16.3001 418.242C16.3074 418.25 16.3111 418.261 16.3111 418.275C16.3111 418.276 16.311 418.277 16.311 418.279H16.2465C16.2471 418.289 16.2498 418.296 16.2546 418.301C16.2594 418.306 16.2654 418.309 16.2726 418.309C16.278 418.309 16.2826 418.307 16.2864 418.304C16.2902 418.302 16.2932 418.297 16.2954 418.291ZM16.2473 418.267H16.2956C16.2949 418.26 16.2931 418.254 16.2901 418.251C16.2854 418.245 16.2793 418.242 16.2719 418.242C16.2652 418.242 16.2595 418.245 16.2549 418.249C16.2503 418.254 16.2478 418.26 16.2473 418.267ZM16.3851 418.319V418.308C16.3796 418.316 16.3716 418.321 16.3609 418.321C16.3541 418.321 16.3477 418.319 16.3419 418.315C16.3362 418.311 16.3317 418.306 16.3285 418.299C16.3253 418.292 16.3238 418.284 16.3238 418.276C16.3238 418.267 16.3252 418.259 16.3281 418.252C16.3309 418.245 16.3353 418.24 16.341 418.236C16.3468 418.232 16.3532 418.23 16.3603 418.23C16.3655 418.23 16.3701 418.231 16.3742 418.234C16.3783 418.236 16.3816 418.239 16.3841 418.242V418.199H16.3987V418.319H16.3851ZM16.3388 418.276C16.3388 418.287 16.3411 418.295 16.3458 418.3C16.3505 418.306 16.356 418.309 16.3623 418.309C16.3687 418.309 16.3742 418.306 16.3786 418.301C16.3831 418.295 16.3854 418.287 16.3854 418.277C16.3854 418.265 16.3831 418.256 16.3785 418.251C16.374 418.245 16.3684 418.242 16.3617 418.242C16.3552 418.242 16.3497 418.245 16.3453 418.25C16.341 418.256 16.3388 418.264 16.3388 418.276ZM16.4682 418.352V418.232H16.4816V418.243C16.4847 418.239 16.4883 418.236 16.4922 418.234C16.4962 418.231 16.501 418.23 16.5066 418.23C16.514 418.23 16.5205 418.232 16.5262 418.236C16.5318 418.24 16.5361 418.245 16.5389 418.252C16.5418 418.259 16.5432 418.267 16.5432 418.275C16.5432 418.284 16.5416 418.292 16.5384 418.299C16.5353 418.306 16.5307 418.311 16.5246 418.315C16.5186 418.319 16.5122 418.321 16.5056 418.321C16.5007 418.321 16.4963 418.32 16.4924 418.318C16.4885 418.315 16.4854 418.313 16.4829 418.31V418.352H16.4682ZM16.4815 418.276C16.4815 418.287 16.4837 418.295 16.4882 418.301C16.4927 418.306 16.4982 418.309 16.5046 418.309C16.5111 418.309 16.5167 418.306 16.5213 418.3C16.5259 418.295 16.5283 418.286 16.5283 418.275C16.5283 418.264 16.526 418.255 16.5214 418.25C16.5169 418.244 16.5115 418.242 16.5052 418.242C16.499 418.242 16.4935 418.245 16.4886 418.251C16.4839 418.256 16.4815 418.265 16.4815 418.276ZM16.5608 418.319V418.232H16.574V418.245C16.5774 418.239 16.5805 418.235 16.5833 418.233C16.5862 418.231 16.5893 418.23 16.5927 418.23C16.5977 418.23 16.6027 418.232 16.6078 418.235L16.6027 418.249C16.5992 418.246 16.5956 418.245 16.592 418.245C16.5888 418.245 16.5859 418.246 16.5834 418.248C16.5808 418.25 16.579 418.253 16.5779 418.256C16.5763 418.262 16.5755 418.267 16.5755 418.273V418.319H16.5608ZM16.611 418.275C16.611 418.259 16.6155 418.248 16.6244 418.24C16.6318 418.233 16.6409 418.23 16.6516 418.23C16.6634 418.23 16.6732 418.234 16.6807 418.242C16.6882 418.25 16.692 418.261 16.692 418.274C16.692 418.285 16.6903 418.294 16.687 418.301C16.6837 418.307 16.6788 418.312 16.6724 418.315C16.666 418.319 16.6591 418.321 16.6516 418.321C16.6395 418.321 16.6297 418.317 16.6222 418.309C16.6147 418.301 16.611 418.29 16.611 418.275ZM16.6261 418.275C16.6261 418.287 16.6285 418.295 16.6333 418.3C16.6382 418.306 16.6442 418.309 16.6516 418.309C16.6588 418.309 16.6649 418.306 16.6697 418.3C16.6745 418.295 16.677 418.286 16.677 418.275C16.677 418.264 16.6745 418.256 16.6696 418.251C16.6648 418.245 16.6588 418.242 16.6516 418.242C16.6442 418.242 16.6382 418.245 16.6333 418.251C16.6285 418.256 16.6261 418.264 16.6261 418.275ZM16.7653 418.319V418.308C16.7599 418.316 16.7518 418.321 16.7412 418.321C16.7343 418.321 16.7279 418.319 16.7221 418.315C16.7164 418.311 16.7119 418.306 16.7087 418.299C16.7055 418.292 16.704 418.284 16.704 418.276C16.704 418.267 16.7054 418.259 16.7083 418.252C16.7112 418.245 16.7155 418.24 16.7212 418.236C16.727 418.232 16.7334 418.23 16.7405 418.23C16.7457 418.23 16.7504 418.231 16.7544 418.234C16.7585 418.236 16.7618 418.239 16.7644 418.242V418.199H16.7789V418.319H16.7653ZM16.719 418.276C16.719 418.287 16.7214 418.295 16.726 418.3C16.7307 418.306 16.7362 418.309 16.7425 418.309C16.7489 418.309 16.7544 418.306 16.7588 418.301C16.7633 418.295 16.7656 418.287 16.7656 418.277C16.7656 418.265 16.7633 418.256 16.7587 418.251C16.7542 418.245 16.7486 418.242 16.7419 418.242C16.7354 418.242 16.7299 418.245 16.7255 418.25C16.7212 418.256 16.719 418.264 16.719 418.276ZM16.8587 418.319V418.306C16.852 418.316 16.8428 418.321 16.8313 418.321C16.8262 418.321 16.8214 418.32 16.8169 418.318C16.8125 418.316 16.8093 418.313 16.8071 418.31C16.805 418.307 16.8035 418.304 16.8026 418.299C16.802 418.297 16.8017 418.292 16.8017 418.286V418.232H16.8164V418.28C16.8164 418.288 16.8167 418.293 16.8173 418.296C16.8182 418.299 16.8201 418.303 16.8231 418.305C16.8261 418.307 16.8298 418.308 16.8342 418.308C16.8386 418.308 16.8427 418.307 16.8466 418.305C16.8504 418.302 16.8531 418.299 16.8547 418.295C16.8563 418.292 16.8571 418.286 16.8571 418.279V418.232H16.8718V418.319H16.8587ZM16.9512 418.287L16.9656 418.289C16.964 418.299 16.96 418.307 16.9535 418.312C16.947 418.318 16.9391 418.321 16.9296 418.321C16.9178 418.321 16.9083 418.317 16.9011 418.309C16.8939 418.301 16.8903 418.29 16.8903 418.276C16.8903 418.266 16.8919 418.258 16.895 418.251C16.8981 418.244 16.9028 418.239 16.9091 418.236C16.9154 418.232 16.9223 418.23 16.9297 418.23C16.9391 418.23 16.9468 418.233 16.9528 418.237C16.9587 418.242 16.9625 418.249 16.9642 418.258L16.95 418.26C16.9486 418.254 16.9462 418.25 16.9427 418.247C16.9393 418.244 16.9352 418.242 16.9303 418.242C16.9229 418.242 16.9169 418.245 16.9123 418.25C16.9077 418.256 16.9054 418.264 16.9054 418.275C16.9054 418.287 16.9076 418.295 16.9121 418.301C16.9165 418.306 16.9223 418.309 16.9295 418.309C16.9352 418.309 16.94 418.307 16.9439 418.303C16.9477 418.3 16.9502 418.294 16.9512 418.287ZM17.0101 418.306L17.0122 418.319C17.0081 418.319 17.0044 418.32 17.0012 418.32C16.9959 418.32 16.9917 418.319 16.9888 418.317C16.9859 418.316 16.9838 418.313 16.9826 418.311C16.9814 418.308 16.9808 418.302 16.9808 418.293V418.244H16.9701V418.232H16.9808V418.211L16.9954 418.202V418.232H17.0101V418.244H16.9954V418.294C16.9954 418.298 16.9956 418.301 16.9961 418.302C16.9967 418.303 16.9975 418.304 16.9987 418.305C16.9998 418.306 17.0015 418.306 17.0037 418.306C17.0053 418.306 17.0075 418.306 17.0101 418.306ZM17.0187 418.293L17.0332 418.291C17.034 418.296 17.0362 418.301 17.0399 418.304C17.0437 418.307 17.0489 418.309 17.0555 418.309C17.0623 418.309 17.0673 418.307 17.0705 418.305C17.0738 418.302 17.0754 418.299 17.0754 418.295C17.0754 418.292 17.074 418.289 17.0711 418.287C17.0691 418.286 17.0641 418.284 17.0561 418.282C17.0454 418.279 17.0379 418.277 17.0337 418.275C17.0296 418.273 17.0265 418.27 17.0243 418.267C17.0222 418.263 17.0211 418.259 17.0211 418.255C17.0211 418.251 17.022 418.248 17.0237 418.245C17.0255 418.241 17.0279 418.238 17.031 418.236C17.0332 418.235 17.0363 418.233 17.0402 418.232C17.0442 418.231 17.0484 418.23 17.0529 418.23C17.0597 418.23 17.0657 418.231 17.0708 418.233C17.0759 418.235 17.0797 418.238 17.0822 418.241C17.0846 418.244 17.0863 418.249 17.0872 418.255L17.0729 418.256C17.0722 418.252 17.0703 418.249 17.0672 418.246C17.0641 418.244 17.0597 418.242 17.054 418.242C17.0473 418.242 17.0425 418.243 17.0396 418.246C17.0367 418.248 17.0353 418.25 17.0353 418.253C17.0353 418.255 17.0359 418.257 17.0371 418.259C17.0383 418.26 17.0401 418.261 17.0427 418.263C17.0441 418.263 17.0485 418.264 17.0556 418.266C17.066 418.269 17.0732 418.271 17.0773 418.273C17.0814 418.275 17.0846 418.277 17.087 418.281C17.0893 418.284 17.0905 418.288 17.0905 418.293C17.0905 418.298 17.089 418.303 17.0861 418.307C17.0833 418.311 17.0792 418.315 17.0739 418.317C17.0685 418.319 17.0624 418.321 17.0556 418.321C17.0444 418.321 17.0358 418.318 17.0299 418.314C17.024 418.309 17.0203 418.302 17.0187 418.293ZM17.1543 418.319V418.199H17.1689V418.242C17.1757 418.234 17.1844 418.23 17.1948 418.23C17.2012 418.23 17.2067 418.232 17.2115 418.234C17.2162 418.237 17.2196 418.24 17.2216 418.245C17.2236 418.249 17.2247 418.255 17.2247 418.264V418.319H17.21V418.264C17.21 418.257 17.2084 418.251 17.2052 418.248C17.2021 418.245 17.1976 418.243 17.1918 418.243C17.1874 418.243 17.1833 418.244 17.1795 418.246C17.1757 418.249 17.173 418.252 17.1713 418.255C17.1697 418.259 17.1689 418.265 17.1689 418.271V418.319H17.1543ZM17.3062 418.291L17.3213 418.293C17.3189 418.302 17.3145 418.308 17.3081 418.313C17.3016 418.318 17.2934 418.321 17.2833 418.321C17.2707 418.321 17.2607 418.317 17.2532 418.309C17.2458 418.301 17.2421 418.29 17.2421 418.276C17.2421 418.262 17.2459 418.25 17.2534 418.242C17.2609 418.234 17.2706 418.23 17.2825 418.23C17.2941 418.23 17.3035 418.234 17.3108 418.242C17.3182 418.25 17.3218 418.261 17.3218 418.275C17.3218 418.276 17.3218 418.277 17.3217 418.279H17.2573C17.2578 418.289 17.2605 418.296 17.2653 418.301C17.2702 418.306 17.2762 418.309 17.2834 418.309C17.2888 418.309 17.2934 418.307 17.2972 418.304C17.301 418.302 17.304 418.297 17.3062 418.291ZM17.2581 418.267H17.3064C17.3057 418.26 17.3039 418.254 17.3008 418.251C17.2962 418.245 17.2901 418.242 17.2827 418.242C17.276 418.242 17.2703 418.245 17.2657 418.249C17.2611 418.254 17.2586 418.26 17.2581 418.267ZM17.3396 418.319V418.232H17.3528V418.245C17.3562 418.239 17.3593 418.235 17.3621 418.233C17.365 418.231 17.3681 418.23 17.3715 418.23C17.3765 418.23 17.3815 418.232 17.3866 418.235L17.3816 418.249C17.378 418.246 17.3744 418.245 17.3708 418.245C17.3676 418.245 17.3647 418.246 17.3622 418.248C17.3596 418.25 17.3578 418.253 17.3567 418.256C17.3551 418.262 17.3543 418.267 17.3543 418.273V418.319H17.3396ZM17.4545 418.291L17.4696 418.293C17.4672 418.302 17.4628 418.308 17.4563 418.313C17.4499 418.318 17.4416 418.321 17.4316 418.321C17.419 418.321 17.4089 418.317 17.4015 418.309C17.3941 418.301 17.3904 418.29 17.3904 418.276C17.3904 418.262 17.3942 418.25 17.4017 418.242C17.4091 418.234 17.4189 418.23 17.4308 418.23C17.4423 418.23 17.4518 418.234 17.4591 418.242C17.4664 418.25 17.4701 418.261 17.4701 418.275C17.4701 418.276 17.4701 418.277 17.47 418.279H17.4056C17.4061 418.289 17.4088 418.296 17.4136 418.301C17.4184 418.306 17.4245 418.309 17.4317 418.309C17.4371 418.309 17.4416 418.307 17.4454 418.304C17.4492 418.302 17.4523 418.297 17.4545 418.291ZM17.4064 418.267H17.4546C17.454 418.26 17.4521 418.254 17.4491 418.251C17.4444 418.245 17.4384 418.242 17.431 418.242C17.4242 418.242 17.4186 418.245 17.4139 418.249C17.4094 418.254 17.4069 418.26 17.4064 418.267ZM17.4922 418.319V418.302H17.5089V418.319H17.4922Z" fill="#363636"/>
</svg>
