<svg width="29" height="29" viewBox="0 0 29 29" fill="none" xmlns="http://www.w3.org/2000/svg">
<circle cx="14.5" cy="14.5" r="14.5" fill="#F89927"/>
<path d="M20.5579 16.2621C20.2426 15.6842 19.699 15.235 18.9273 14.9145C20.0326 14.5569 20.6233 13.7441 20.6999 12.4761C20.7311 12.0169 20.6688 11.6046 20.5128 11.2385C20.3567 10.8724 20.1169 10.5598 19.7924 10.3004C19.4683 10.0408 19.1052 9.82456 18.7041 9.65133C18.3029 9.47809 17.8351 9.32404 17.301 9.18935L17.716 6.59709L16.132 6.34351L15.7285 8.86374C15.4542 8.81983 15.0348 8.75971 14.4703 8.68342L14.8771 6.14261L13.2929 5.88899L12.8779 8.48125C12.6504 8.45189 12.3173 8.40214 11.8784 8.33188L9.69932 7.97239L9.42923 9.65944L10.571 9.84222C11.0922 9.92566 11.36 10.2077 11.3745 10.6883L10.9019 13.6406C10.9705 13.6516 11.0248 13.6639 11.0649 13.6773L10.9002 13.651L10.2382 17.7861C10.1274 18.127 9.90056 18.2701 9.55763 18.2152L8.41596 18.0324L7.79565 19.8639L9.85301 20.1933C9.98333 20.2141 10.1715 20.246 10.418 20.2887C10.6643 20.3317 10.8491 20.363 10.9726 20.3828L10.5526 23.0058L12.1371 23.2595L12.5521 20.6673C12.8389 20.7204 13.2567 20.7907 13.8053 20.8786L13.392 23.4604L14.976 23.714L15.396 21.0909C15.9628 21.1536 16.4699 21.1823 16.9173 21.1763C17.3649 21.1703 17.8005 21.1189 18.224 21.0213C18.6474 20.9239 19.0121 20.7764 19.3179 20.5792C19.6239 20.3822 19.8937 20.1123 20.1282 19.7699C20.3621 19.4275 20.5423 19.0168 20.6681 18.5374C20.9102 17.5988 20.8733 16.8402 20.5579 16.2621ZM14.2047 10.5397C14.2528 10.5474 14.3885 10.5673 14.6119 10.5996C14.8355 10.6317 15.0211 10.658 15.1691 10.6781C15.3171 10.6983 15.5146 10.7388 15.7617 10.7994C16.0087 10.8601 16.2151 10.9213 16.3811 10.983C16.547 11.0446 16.7267 11.1315 16.9196 11.2432C17.1129 11.355 17.262 11.4774 17.3672 11.6103C17.4726 11.7432 17.5541 11.904 17.6117 12.0926C17.6695 12.2812 17.6803 12.4886 17.644 12.7149C17.6133 12.9069 17.5545 13.0769 17.4676 13.2248C17.3808 13.3727 17.2668 13.4899 17.1265 13.5764C16.9862 13.663 16.8442 13.7353 16.7013 13.7933C16.5585 13.8512 16.3819 13.8881 16.172 13.9036C15.9621 13.9193 15.7795 13.9287 15.6243 13.932C15.469 13.9353 15.2774 13.924 15.0495 13.898C14.8215 13.872 14.6488 13.8515 14.5318 13.8363C14.4146 13.821 14.2552 13.7955 14.0534 13.7597C13.8515 13.7239 13.7336 13.7032 13.6993 13.6977L14.2048 10.5397L14.2047 10.5397L14.2047 10.5397ZM17.409 18.2373C17.3184 18.3847 17.2125 18.5085 17.0911 18.6087C16.9695 18.7086 16.8175 18.7899 16.6353 18.852C16.4531 18.9144 16.2786 18.9602 16.1122 18.9898C15.9455 19.0197 15.7475 19.0369 15.5183 19.0426C15.2885 19.048 15.0885 19.0457 14.9176 19.0361C14.7469 19.0264 14.5442 19.0079 14.3093 18.981C14.0746 18.9537 13.8919 18.9298 13.7617 18.909C13.6314 18.8881 13.467 18.8599 13.2687 18.8247C13.0702 18.7896 12.9437 18.7676 12.8888 18.7588L13.4455 15.2818C13.5003 15.2906 13.6637 15.3133 13.9358 15.3497C14.2079 15.3861 14.4294 15.4183 14.6009 15.4458C14.7723 15.4732 15.0074 15.5212 15.3059 15.5903C15.6042 15.659 15.853 15.7303 16.0524 15.8045C16.2514 15.8786 16.4657 15.9779 16.6956 16.1027C16.9253 16.2273 17.1058 16.3635 17.2369 16.5111C17.368 16.6589 17.4696 16.8367 17.5417 17.0452C17.614 17.2537 17.6303 17.4814 17.5908 17.7283C17.56 17.9206 17.4995 18.0899 17.409 18.2373Z" fill="#FEFEFE"/>
</svg>
