<svg width="260" height="260" viewBox="0 0 260 260" fill="none" xmlns="http://www.w3.org/2000/svg">
<g clip-path="url(#clip0)">
<path d="M30.4123 86.1683H55.7559C72.5253 86.1683 86.1683 72.5253 86.1683 55.7559V30.4123C86.1683 13.643 72.5253 0 55.7559 0H30.4123C13.643 0 0 13.643 0 30.4123V55.7559C0 72.5253 13.643 86.1683 30.4123 86.1683ZM20.2749 30.4123C20.2749 24.8225 24.8225 20.2749 30.4123 20.2749H55.7559C61.3457 20.2749 65.8934 24.8225 65.8934 30.4123V55.7559C65.8934 61.3457 61.3457 65.8934 55.7559 65.8934H30.4123C24.8225 65.8934 20.2749 61.3457 20.2749 55.7559V30.4123Z" fill="black"/>
<path d="M223.024 179.94H202.749V200.214H223.024V179.94Z" fill="black"/>
<path d="M259.518 179.94H239.243V220.489H259.518V179.94Z" fill="black"/>
<path d="M202.749 200.214H182.474V220.489H202.749V200.214Z" fill="black"/>
<path d="M141.924 259.519V239.244H161.692V259.519H181.967V239.244H162.199V218.969H121.649V259.519H141.924Z" fill="black"/>
<path d="M223.024 259.519V240.764H239.244V220.489H202.749V259.519H223.024Z" fill="black"/>
<path d="M53.2212 32.9467H32.9463V53.2216H53.2212V32.9467Z" fill="black"/>
<path d="M53.2212 206.297H32.9463V226.572H53.2212V206.297Z" fill="black"/>
<path d="M121.649 180.446H101.374V218.969H121.649V180.446Z" fill="black"/>
<path d="M182.474 140.404H162.199V160.678H182.474V140.404Z" fill="black"/>
<path d="M55.7559 173.35H30.4123C13.643 173.35 0 186.993 0 203.763V229.106C0 245.876 13.643 259.519 30.4123 259.519H55.7559C72.5253 259.519 86.1683 245.876 86.1683 229.106V203.763C86.1683 186.993 72.5253 173.35 55.7559 173.35ZM65.8934 229.106C65.8934 234.696 61.3457 239.244 55.7559 239.244H30.4123C24.8225 239.244 20.2749 234.696 20.2749 229.106V203.763C20.2749 198.173 24.8225 193.625 30.4123 193.625H55.7559C61.3457 193.625 65.8934 198.173 65.8934 203.763V229.106Z" fill="black"/>
<path d="M121.649 59.304V79.5789H101.374V99.8538H141.924V59.304H121.649Z" fill="black"/>
<path d="M141.924 0H121.649V20.2749H141.924V0Z" fill="black"/>
<path d="M162.199 39.0292H141.924V59.304H162.199V39.0292Z" fill="black"/>
<path d="M239.243 99.8538H202.242V120.129H182.474V140.404H202.749V160.172H259.518V119.622H239.243V99.8538ZM239.243 139.897H202.749V120.129H239.243V139.897Z" fill="black"/>
<path d="M162.199 99.8538H141.924V140.404H162.199V99.8538Z" fill="black"/>
<path d="M229.107 0H203.763C186.994 0 173.351 13.643 173.351 30.4123V55.7559C173.351 72.5253 186.994 86.1683 203.763 86.1683H229.107C245.876 86.1683 259.519 72.5253 259.519 55.7559V30.4123C259.519 13.643 245.876 0 229.107 0ZM239.244 55.7559C239.244 61.3457 234.696 65.8934 229.107 65.8934H203.763C198.173 65.8934 193.625 61.3457 193.625 55.7559V30.4123C193.625 24.8225 198.173 20.2749 203.763 20.2749H229.107C234.696 20.2749 239.244 24.8225 239.244 30.4123V55.7559Z" fill="black"/>
<path d="M226.572 32.9467H206.297V53.2216H226.572V32.9467Z" fill="black"/>
<path d="M40.5493 99.8538H20.2744V120.129H40.5493V99.8538Z" fill="black"/>
<path d="M20.2749 120.129H0V160.678H20.2749V120.129Z" fill="black"/>
<path d="M40.5498 140.404H60.3178V160.678H80.5927V140.404H60.8247V120.129H40.5498V140.404Z" fill="black"/>
<path d="M121.649 20.2749H101.374V59.304H121.649V20.2749Z" fill="black"/>
<path d="M121.649 160.678V180.446H141.924V200.214H182.474V179.94H141.924V160.172H121.649V120.129H101.374V160.678H121.649Z" fill="black"/>
<path d="M101.374 99.8538H60.8242V120.129H101.374V99.8538Z" fill="black"/>
</g>
<defs>
<clipPath id="clip0">
<rect width="259.519" height="259.519" fill="white"/>
</clipPath>
</defs>
</svg>
