<svg width="148" height="44" viewBox="0 0 148 44" fill="none" xmlns="http://www.w3.org/2000/svg">
<rect width="148" height="44" rx="4" fill="#363636"/>
<path d="M49.297 7.45814L51.7668 7.45814C53.9465 7.45814 55.2346 8.83008 55.2346 11.1632C55.2346 13.5013 53.9515 14.8733 51.7668 14.8733L49.297 14.8733L49.297 7.45898L49.297 7.45814ZM50.2134 8.29045L50.2134 14.0401L51.7058 14.0401C53.3713 14.0401 54.2984 13.0124 54.2984 11.1732C54.2984 9.31816 53.3763 8.29045 51.7058 8.29045L50.2134 8.29045V8.29045ZM59.2627 14.924C57.7653 14.924 56.8077 13.8605 56.8077 12.2009C56.8077 10.5363 57.7653 9.47781 59.2627 9.47781C60.7551 9.47781 61.7119 10.5363 61.7119 12.2009C61.7119 13.8605 60.7543 14.924 59.2627 14.924ZM59.2627 14.1374C60.2351 14.1374 60.8111 13.4182 60.8111 12.2001C60.8111 10.9819 60.2359 10.2627 59.2627 10.2627C58.2845 10.2627 57.7093 10.9869 57.7093 12.2001C57.7093 13.4182 58.2894 14.1374 59.2627 14.1374ZM70.1752 9.52853L69.2992 9.52853L68.2402 13.8755L68.2196 13.8755L67.0181 9.52853L66.1627 9.52853L64.9662 13.8755L64.9456 13.8755L63.8866 9.52853L63.0057 9.52853L64.4874 14.8724L65.3889 14.8724L66.5805 10.7358L66.6011 10.7358L67.7977 14.8724L68.6992 14.8724L70.176 9.52853L70.1752 9.52853ZM71.7327 14.8724L72.6186 14.8724L72.6186 11.7743C72.6186 10.8697 73.1378 10.2685 73.994 10.2685C74.8189 10.2685 75.2161 10.7417 75.2161 11.6047L75.2161 14.8724L76.102 14.8724L76.102 11.4451C76.102 10.2328 75.4295 9.47697 74.2684 9.47697C73.4484 9.47697 72.9186 9.79044 72.5881 10.4016L72.5675 10.4016L72.5675 9.52769L71.7327 9.52769L71.7327 14.8716L71.7327 14.8724ZM78.1078 14.8724L78.9937 14.8724L78.9937 7.45814L78.1078 7.45814L78.1078 14.8724ZM83.2204 14.924C81.7231 14.924 80.7655 13.8605 80.7655 12.2009C80.7655 10.5363 81.7231 9.47781 83.2204 9.47781C84.7128 9.47781 85.6696 10.5363 85.6696 12.2009C85.6696 13.8605 84.712 14.924 83.2204 14.924ZM83.2204 14.1374C84.1928 14.1374 84.7689 13.4182 84.7689 12.2001C84.7689 10.9819 84.1937 10.2627 83.2204 10.2627C82.2422 10.2627 81.667 10.9869 81.667 12.2001C81.667 13.4182 82.2472 14.1374 83.2204 14.1374ZM89.1423 14.184C89.9927 14.184 90.619 13.6036 90.619 12.8428L90.619 12.4162L89.2494 12.5036C88.4649 12.5501 88.0578 12.8428 88.0578 13.3517C88.0578 13.8397 88.4805 14.184 89.1423 14.184V14.184ZM88.9437 14.9498C87.8691 14.9498 87.1562 14.2971 87.1562 13.3517C87.1562 12.432 87.8542 11.8874 89.1472 11.8101L90.619 11.7228L90.619 11.2813C90.619 10.6236 90.1913 10.2636 89.4225 10.2636C88.8168 10.2636 88.3635 10.577 88.2613 11.0751L87.4158 11.0751C87.4414 10.1654 88.3124 9.47697 89.4373 9.47697C90.6948 9.47697 91.5049 10.1505 91.5049 11.2031L91.5049 14.8716L90.6644 14.8716L90.6644 13.952L90.6438 13.952C90.343 14.5432 89.6812 14.9489 88.9428 14.9489L88.9437 14.9498ZM95.4721 14.924C94.1428 14.924 93.2058 13.8348 93.2058 12.2009C93.2058 10.567 94.1379 9.47781 95.4514 9.47781C96.2104 9.47781 96.8161 9.81206 97.1375 10.3974L97.1581 10.3974L97.1581 7.45814L98.044 7.45814L98.044 14.8724L97.1985 14.8724L97.1985 13.9678L97.1828 13.9678C96.8417 14.5847 96.236 14.9232 95.4721 14.9232L95.4721 14.924ZM95.6402 10.2685C94.7238 10.2685 94.1123 11.0343 94.1123 12.2009C94.1123 13.3724 94.7238 14.1333 95.6402 14.1333C96.5516 14.1333 97.1631 13.3575 97.1631 12.2009C97.1631 11.0501 96.5516 10.2685 95.6402 10.2685ZM105.243 14.924C103.746 14.924 102.788 13.8605 102.788 12.2009C102.788 10.5363 103.746 9.47781 105.243 9.47781C106.736 9.47781 107.692 10.5363 107.692 12.2009C107.692 13.8605 106.735 14.924 105.243 14.924ZM105.243 14.1374C106.216 14.1374 106.792 13.4182 106.792 12.2001C106.792 10.9819 106.216 10.2627 105.243 10.2627C104.265 10.2627 103.69 10.9869 103.69 12.2001C103.69 13.4182 104.27 14.1374 105.243 14.1374ZM109.418 14.8724L110.304 14.8724L110.304 11.7743C110.304 10.8697 110.823 10.2685 111.679 10.2685C112.504 10.2685 112.901 10.7417 112.901 11.6047L112.901 14.8724L113.787 14.8724L113.787 11.4451C113.787 10.2328 113.115 9.47697 111.954 9.47697C111.134 9.47697 110.604 9.79044 110.273 10.4016L110.253 10.4016L110.253 9.52769L109.418 9.52769L109.418 14.8716L109.418 14.8724ZM119.006 8.2389L119.006 9.52853L118.217 9.52853L118.217 10.2636L119.006 10.2636L119.006 13.4805C119.006 14.5082 119.383 14.909 120.356 14.909C120.565 14.909 120.809 14.8932 120.916 14.8683L120.916 14.1183C120.855 14.1283 120.652 14.1441 120.55 14.1441C120.096 14.1441 119.893 13.9229 119.893 13.4348L119.893 10.2644L120.921 10.2644L120.921 9.52936L119.893 9.52936L119.893 8.23973L119.007 8.23973L119.006 8.2389ZM122.743 14.8724L123.629 14.8724L123.629 11.7993C123.629 10.8747 124.174 10.2677 125.055 10.2677C125.885 10.2677 126.308 10.7766 126.308 11.6239L126.308 14.8716L127.193 14.8716L127.193 11.46C127.193 10.2677 126.491 9.47697 125.329 9.47697C124.519 9.47697 123.975 9.79044 123.649 10.4016L123.628 10.4016L123.628 7.45731L122.743 7.45731L122.743 14.8716L122.743 14.8724ZM131.278 10.2527C130.458 10.2527 129.867 10.8539 129.811 11.7428L132.688 11.7428C132.668 10.8489 132.103 10.2527 131.278 10.2527ZM132.668 13.3409L133.539 13.3409C133.391 14.2655 132.469 14.9232 131.334 14.9232C129.836 14.9232 128.894 13.8797 128.894 12.22C128.894 10.5604 129.841 9.47614 131.293 9.47614C132.714 9.47614 133.606 10.4831 133.606 12.102L133.606 12.4412L129.807 12.4412L129.807 12.4927C129.807 13.4947 130.423 14.1474 131.355 14.1474C132.007 14.1474 132.521 13.8339 132.669 13.3409L132.668 13.3409ZM59.149 34.5419L57.8494 30.6672L52.4343 30.6672L51.1348 34.5419L48.8405 34.5419L53.9704 20.2072L56.3528 20.2072L61.4828 34.5419L59.149 34.5419V34.5419ZM55.1118 22.591L52.9947 28.8795L57.2874 28.8795L55.1703 22.591L55.111 22.591L55.1118 22.591ZM68.1867 23.9821C70.8155 23.9821 72.5485 26.0783 72.5485 29.3169C72.5485 32.5655 70.8254 34.6516 68.2262 34.6516C66.7495 34.6516 65.5776 33.9865 64.967 32.8241L64.9175 32.8241L64.9175 38L62.7906 38L62.7906 24.0919L64.8483 24.0919L64.8483 25.8305L64.8879 25.8305C65.4787 24.708 66.7388 23.9829 68.1859 23.9829L68.1867 23.9821ZM67.6255 32.8332C69.2794 32.8332 70.3623 31.4521 70.3623 29.3169C70.3623 27.2008 69.2794 25.8097 67.6255 25.8097C66.0012 25.8097 64.9076 27.2307 64.9076 29.3169C64.9076 31.423 66.0004 32.8332 67.6255 32.8332ZM79.578 23.9821C82.2068 23.9821 83.9398 26.0783 83.9398 29.3169C83.9398 32.5655 82.2167 34.6516 79.6175 34.6516C78.1408 34.6516 76.9689 33.9865 76.3583 32.8241L76.3088 32.8241L76.3088 38L74.1819 38L74.1819 24.0919L76.2396 24.0919L76.2396 25.8305L76.2792 25.8305C76.87 24.708 78.1301 23.9829 79.5771 23.9829L79.578 23.9821ZM79.0168 32.8332C80.6707 32.8332 81.7535 31.4521 81.7535 29.3169C81.7535 27.2008 80.6707 25.8097 79.0168 25.8097C77.3925 25.8097 76.2989 27.2307 76.2989 29.3169C76.2989 31.423 77.3917 32.8332 79.0168 32.8332ZM89.2857 30.5483C89.4233 33.1408 91.5502 34.7805 94.7007 34.7805C98.0679 34.7805 100.185 33.1018 100.185 30.4194C100.185 28.3233 98.9736 27.1409 96.0596 26.4458L94.4939 26.0583C92.6628 25.601 91.9145 25.0057 91.9145 23.9921C91.9145 22.7208 93.0863 21.846 94.7996 21.846C96.5129 21.846 97.6847 22.7099 97.8124 24.1409L99.9592 24.1409C99.89 21.6673 97.8322 19.9686 94.8293 19.9686C91.7966 19.9686 89.6598 21.6673 89.6598 24.1409C89.6598 26.1373 90.8712 27.3696 93.4802 28.0056L95.3212 28.453C97.1622 28.9103 97.9402 29.5755 97.9402 30.688C97.9402 31.9693 96.6505 32.903 94.8581 32.903C92.9874 32.903 91.6186 31.9693 91.4612 30.5483L89.2857 30.5483V30.5483ZM102.529 21.6174L102.529 24.091L101.022 24.091L101.022 25.7897L102.529 25.7897L102.529 31.7797C102.529 33.806 103.346 34.6009 105.443 34.6009C105.915 34.6009 106.388 34.561 106.624 34.502L106.624 32.8132C106.487 32.8332 106.142 32.8631 105.926 32.8631C105.059 32.8631 104.666 32.4457 104.666 31.5519L104.666 25.7897L106.635 25.7897L106.635 24.091L104.666 24.091L104.666 21.6174L102.529 21.6174V21.6174ZM112.827 34.6708C109.814 34.6708 107.914 32.6145 107.914 29.316C107.914 26.0275 109.834 23.9613 112.827 23.9613C115.83 23.9613 117.74 26.0275 117.74 29.316C117.74 32.6145 115.84 34.6708 112.827 34.6708ZM112.827 32.9022C114.55 32.9022 115.574 31.581 115.574 29.316C115.574 27.0611 114.55 25.7299 112.827 25.7299C111.104 25.7299 110.081 27.0711 110.081 29.316C110.081 31.581 111.105 32.9022 112.827 32.9022ZM119.384 34.5411L121.511 34.5411L121.511 28.3424C121.511 26.8723 122.358 25.9386 123.727 25.9386C124.14 25.9386 124.514 25.9984 124.682 26.0675L124.682 24.0611C124.514 24.0212 124.258 23.9813 123.953 23.9813C122.732 23.9813 121.787 24.6864 121.462 25.8687L121.413 25.8687L121.413 24.0902L119.384 24.0902L119.384 34.5411V34.5411ZM130.333 25.6999C128.866 25.6999 127.802 26.7726 127.695 28.3524L132.873 28.3524C132.824 26.7526 131.81 25.6999 130.333 25.6999ZM132.864 31.4721L134.882 31.4721C134.597 33.3695 132.765 34.6708 130.422 34.6708C127.409 34.6708 125.539 32.6345 125.539 29.3659C125.539 26.0874 127.419 23.9613 130.333 23.9613C133.199 23.9613 135 25.9486 135 29.1173L135 29.8523L127.685 29.8523L127.685 29.9812C127.685 31.7697 128.797 32.9413 130.471 32.9413C131.653 32.9413 132.578 32.3751 132.863 31.4712L132.864 31.4721ZM34.7882 32.75C33.5678 34.5427 32.3061 36.3237 30.3135 36.3612C28.3522 36.3986 27.7234 35.1946 25.486 35.1946C23.2461 35.1946 22.5449 36.3237 20.6931 36.3986C18.7697 36.4709 17.307 34.4629 16.0766 32.6785C13.5632 29.0308 11.6455 22.3632 14.2249 17.8641C15.5022 15.6299 17.7915 14.2156 20.272 14.179C22.1608 14.1441 23.9458 15.4586 25.0995 15.4586C26.2549 15.4586 28.4214 13.8805 30.6983 14.1125C31.6518 14.1524 34.3268 14.4983 36.045 17.0235C35.909 17.1133 32.8517 18.9001 32.8887 22.6226C32.9258 27.0694 36.7677 28.5478 36.813 28.5677C36.7784 28.6725 36.1991 30.678 34.7874 32.75L34.7882 32.75ZM26.4213 9.2267C27.4762 7.9853 29.2578 7.06153 30.7288 7C30.9167 8.72449 30.2261 10.4515 29.2059 11.6954C28.1841 12.9376 26.5103 13.9054 24.8688 13.7757C24.6454 12.0886 25.4736 10.3292 26.4213 9.2267Z" fill="white"/>
</svg>
